<!DOCTYPE svg PUBLIC "-//W3C//DTD SVG 20010904//EN" "http://www.w3.org/TR/2001/REC-SVG-20010904/DTD/svg10.dtd">
<svg version="1.0" xmlns="http://www.w3.org/2000/svg" width="1024px" height="1024px" viewBox="0 0 10240 10240" preserveAspectRatio="xMidYMid meet">
<g id="layer101" fill="#7e7e7e" stroke="none">
<path d="M5800 9744 c-17 -36 -30 -72 -30 -80 0 -8 16 -40 35 -70 19 -30 35 -56 35 -59 0 -2 -51 -40 -112 -83 -140 -99 -144 -103 -191 -194 l-37 -73 0 -194 0 -194 -52 -62 c-29 -34 -70 -72 -92 -86 -66 -41 -187 -188 -221 -268 -22 -52 -58 -104 -133 -193 -57 -68 -118 -131 -136 -140 -27 -15 -43 -42 -100 -165 l-69 -148 -63 -344 c-35 -190 -64 -365 -64 -391 l0 -47 -152 -23 -153 -24 -166 18 c-136 15 -172 16 -200 6 -28 -10 -43 -10 -84 2 -38 12 -88 14 -216 10 -133 -4 -176 -1 -221 12 -48 14 -121 16 -520 16 l-463 0 -333 -333 -332 -332 2 -235 3 -235 78 -3 77 -3 0 -44 0 -44 -62 -3 -63 -3 -3 -507 -2 -507 -148 -3 -147 -3 -3 -75 c-2 -52 -7 -77 -17 -83 -22 -12 -22 -242 0 -254 10 -6 15 -31 17 -88 l3 -80 350 0 350 0 3 28 c7 59 21 23 24 -60 l3 -88 78 -3 c141 -5 81 -21 -91 -24 l-167 -3 -3 -242 -2 -243 -278 -2 -277 -3 0 -465 0 -465 307 -3 308 -2 2 -333 3 -332 835 0 835 0 3 23 c2 12 7 22 12 22 5 0 10 -10 12 -22 l3 -23 447 -3 447 -2 3 -368 c4 -483 3 -478 159 -892 66 -173 141 -358 167 -410 l47 -95 252 -3 c252 -2 253 -2 290 22 36 22 45 40 152 302 91 222 126 322 173 494 32 118 62 223 68 232 6 11 10 152 10 368 l0 350 188 1 c103 1 401 5 662 8 l475 6 3 23 c5 31 20 28 24 -6 l3 -27 440 0 440 0 0 255 0 255 -108 3 -109 3 103 107 103 107 66 5 65 5 0 310 0 310 -117 3 -118 3 0 159 0 159 118 3 117 3 3 272 2 273 333 2 332 3 0 260 0 260 -117 3 -118 3 -2 207 -3 207 -57 3 c-32 2 -58 7 -58 12 0 5 72 11 163 12 l162 3 0 440 0 440 -102 3 c-73 2 -103 6 -103 15 0 9 54 11 227 9 l227 -3 128 128 128 128 0 65 0 65 -131 133 -131 132 -222 -2 -221 -3 -3 -65 -3 -65 -484 3 -485 2 0 583 0 582 -171 170 c-94 94 -283 288 -421 433 -170 178 -257 262 -272 263 -14 0 -52 38 -121 120 -159 190 -145 158 -145 344 0 224 -11 258 -161 480 -63 94 -116 177 -119 186 -3 9 -26 39 -52 67 l-46 52 -236 0 -237 0 -29 -66z m351 -976 l126 -43 106 -120 c81 -91 107 -127 107 -148 0 -18 14 -45 39 -75 22 -26 100 -126 175 -222 116 -149 135 -180 138 -215 l3 -40 60 -5 c56 -5 64 -8 96 -45 21 -24 41 -60 49 -90 7 -27 28 -69 47 -92 19 -24 33 -53 33 -69 0 -33 -43 -110 -69 -124 -10 -5 -31 -31 -46 -57 -16 -27 -29 -49 -30 -51 -1 -1 -106 56 -233 128 l-230 130 -129 0 c-96 0 -162 6 -258 25 -72 14 -152 25 -179 25 -51 0 -136 -35 -581 -240 -170 -78 -301 -127 -313 -116 -1 2 -16 67 -33 145 l-31 141 71 66 c53 49 71 73 71 92 1 21 51 78 240 271 l240 244 0 46 c1 43 6 52 90 150 71 82 90 111 90 135 0 24 10 39 40 64 21 17 47 32 58 32 11 0 39 22 63 49 24 27 49 49 54 50 6 1 67 -18 136 -41z m153 -1448 c53 -33 104 -60 115 -60 11 0 23 -4 26 -10 3 -5 15 -10 27 -10 11 0 62 -29 114 -65 l94 -65 245 0 245 0 0 -290 0 -290 -182 -2 -183 -3 -3 -452 -2 -453 -483 -1 c-265 0 -530 0 -588 1 l-107 1 -61 61 -61 61 -2 241 -3 241 -327 3 -328 2 0 160 0 160 70 0 69 0 3 -57 3 -58 170 0 170 0 3 328 2 327 119 0 119 0 27 35 c36 48 247 155 304 155 29 0 44 6 58 23 13 17 45 30 118 49 55 14 108 27 117 27 9 1 60 -26 112 -59z m-2519 -780 c4 -6 118 -10 310 -10 192 0 306 4 310 10 3 6 40 10 81 10 l74 0 0 -160 0 -160 -402 -2 -403 -3 0 -200 0 -200 95 -6 c52 -3 -115 -6 -372 -7 l-468 -2 0 220 0 219 63 3 62 3 3 148 3 147 319 0 c202 0 321 -4 325 -10z m4227 -752 l3 -203 177 -3 178 -2 2 -238 3 -237 58 -3 c31 -2 57 -7 57 -12 0 -5 -26 -10 -57 -12 l-58 -3 -3 -302 -2 -303 -358 -2 -357 -3 -3 -252 -2 -253 -160 0 -160 0 -2 198 -3 197 -255 3 -255 2 -112 52 -113 52 0 403 0 403 195 0 194 0 3 -57 3 -58 200 0 200 0 0 385 0 385 -127 3 -128 3 0 29 0 30 440 0 440 0 2 -202z m-2840 -240 l3 -393 330 -2 c182 -2 410 -3 508 -3 l177 0 0 -95 0 -94 -122 -3 -123 -3 0 -260 0 -260 123 -3 122 -3 0 -53 c0 -45 -3 -54 -20 -59 -19 -5 -20 -14 -20 -137 0 -123 1 -132 20 -137 17 -5 20 -14 20 -59 l0 -54 -177 -2 -178 -3 0 -405 0 -405 240 0 240 0 3 83 3 82 74 0 74 0 3 -87 3 -88 133 -3 c73 -1 132 -7 132 -12 0 -5 -42 -11 -92 -12 l-93 -3 -3 -52 -3 -53 -227 -2 -227 -3 0 -325 0 -325 48 -3 c83 -5 50 -21 -51 -24 l-99 -3 -234 -285 -235 -285 -170 -3 -169 -2 -233 290 -233 290 -472 -2 -472 -3 -3 -22 c-2 -13 -7 -23 -12 -23 -5 0 -10 10 -12 23 -3 21 -8 22 -95 25 -51 1 -93 7 -93 12 0 5 10 10 23 12 22 3 22 5 25 185 l2 182 63 3 62 3 0 225 0 225 -117 3 -118 3 0 614 0 615 195 0 194 0 3 -82 3 -83 259 -2 c142 -1 261 -4 264 -8 3 -3 107 -5 231 -5 l226 0 107 107 108 108 0 105 0 105 -113 113 -113 113 -227 -3 -227 -3 -2 485 -3 485 -110 5 c-60 3 -99 7 -85 10 23 5 25 10 28 63 l3 57 464 0 465 0 2 -392z m-1710 -175 l3 -148 147 -3 148 -3 2 -272 3 -272 65 -6 c38 -3 -16 -6 -132 -7 l-198 -2 -2 178 -3 177 -255 0 -255 0 -3 -267 -2 -268 60 0 60 0 0 -105 0 -105 -60 0 -60 0 0 -270 0 -270 -44 0 -44 0 -92 130 c-82 115 -96 130 -121 130 -16 0 -29 4 -29 10 0 5 39 11 88 12 l87 3 3 250 2 249 -67 68 -67 68 -185 0 -185 0 -68 -67 c-44 -44 -68 -75 -68 -90 0 -13 -4 -23 -10 -23 -7 0 -10 182 -10 525 l0 525 645 0 644 0 3 -147z m3288 -1978 l0 -135 -55 0 -55 0 0 120 0 120 -295 0 c-256 0 -295 2 -295 15 0 13 46 15 350 15 l350 0 0 -135z m-4360 -650 l0 -425 485 0 c478 0 485 0 485 -20 0 -20 -7 -20 -510 -20 l-510 0 0 330 0 330 -240 0 -240 0 0 115 0 115 265 0 265 0 0 -425z m4160 -38 c0 -15 39 -61 128 -150 l128 -127 274 2 275 3 3 98 3 97 112 0 112 0 110 -108 110 -107 -230 -5 -230 -5 -3 -87 c-1 -49 -7 -88 -12 -88 -5 0 -10 10 -12 23 l-3 22 -445 6 c-245 3 -446 6 -447 7 -2 1 -3 101 -3 222 l0 220 65 0 c61 0 65 -1 65 -23z"/>
<path d="M5280 4510 l0 -60 85 0 85 0 0 -165 0 -165 260 0 c143 0 260 3 260 8 -1 4 -7 18 -14 32 -12 21 -12 29 0 52 l15 28 -201 0 -200 0 0 165 0 165 -145 0 -145 0 0 -60z"/>
<path d="M6018 4273 c-37 -42 -50 -83 -38 -118 21 -64 46 -85 101 -85 l49 0 0 110 0 110 -48 0 c-34 0 -54 -5 -64 -17z"/>
</g>
<g id="layer102" fill="#3daf9a" stroke="none">
<path d="M5280 4510 l0 -60 85 0 85 0 0 -165 0 -165 260 0 261 0 -17 31 c-12 25 -14 37 -5 56 6 13 11 26 11 28 0 3 -88 5 -195 5 l-195 0 0 165 0 165 -145 0 -145 0 0 -60z"/>
<path d="M6018 4273 c-9 -10 -23 -33 -32 -51 -19 -38 -13 -70 24 -122 19 -26 27 -30 71 -30 l49 0 0 110 0 110 -48 0 c-34 0 -54 -5 -64 -17z"/>
<path d="M910 6105 l0 -1735 164 0 165 0 -15 35 c-13 31 -13 38 2 60 l16 25 -106 0 -106 0 0 1615 0 1615 1785 0 1785 0 0 60 0 60 -1845 0 -1845 0 0 -1735z"/>
<path d="M7910 7780 l0 -60 935 0 935 0 0 -665 0 -665 -55 0 -55 0 0 -60 0 -60 115 0 115 0 0 785 0 785 -995 0 -995 0 0 -60z"/>
<path d="M1288 4523 c-9 -10 -23 -33 -33 -52 -18 -36 -12 -67 27 -123 17 -25 26 -28 74 -28 l54 0 0 110 0 110 -53 0 c-39 0 -58 -5 -69 -17z"/>
</g>
<g id="layer103" fill="#a5a289" stroke="none">
<path d="M5800 9744 c-17 -36 -30 -72 -30 -80 0 -8 16 -40 35 -70 19 -30 35 -56 35 -59 0 -2 -51 -40 -112 -83 -140 -99 -144 -103 -191 -194 l-37 -73 0 -194 0 -194 -52 -62 c-29 -34 -70 -72 -92 -86 -66 -41 -187 -188 -221 -268 -22 -52 -58 -104 -133 -193 -57 -68 -118 -131 -136 -140 -27 -15 -43 -42 -100 -165 l-69 -148 -63 -344 c-35 -190 -64 -365 -64 -391 l0 -47 -152 -23 -153 -24 -166 18 c-136 15 -172 16 -200 6 -28 -10 -43 -10 -84 2 -38 12 -88 14 -216 10 -133 -4 -176 -1 -221 12 -48 14 -121 16 -520 16 l-463 0 -333 -333 -332 -332 2 -235 3 -235 78 -3 77 -3 0 -44 0 -44 -62 -3 -63 -3 -3 -507 -2 -507 -148 -3 -147 -3 -3 -75 c-2 -52 -7 -77 -17 -83 -22 -12 -22 -242 0 -254 10 -6 15 -31 17 -88 l3 -80 350 0 350 0 3 28 c7 59 21 23 24 -60 l3 -88 78 -3 c141 -5 81 -21 -91 -24 l-167 -3 -3 -242 -2 -243 -278 -2 -277 -3 0 -465 0 -465 307 -3 308 -2 2 -333 3 -332 835 0 835 0 3 23 c2 12 7 22 12 22 5 0 10 -10 12 -22 l3 -23 447 -3 447 -2 3 -368 c4 -483 3 -478 159 -892 66 -173 141 -358 167 -410 l47 -95 252 -3 c252 -2 253 -2 290 22 36 22 45 40 152 302 91 222 126 322 173 494 32 118 62 223 68 232 6 11 10 152 10 368 l0 350 188 1 c103 1 401 5 662 8 l475 6 3 23 c5 31 20 28 24 -6 l3 -27 440 0 440 0 0 255 0 255 -108 3 -109 3 103 107 103 107 66 5 65 5 0 310 0 310 -117 3 -118 3 0 159 0 159 118 3 117 3 3 272 2 273 333 2 332 3 0 260 0 260 -117 3 -118 3 -2 207 -3 207 -57 3 c-32 2 -58 7 -58 12 0 5 72 11 163 12 l162 3 0 440 0 440 -102 3 c-73 2 -103 6 -103 15 0 9 54 11 227 9 l227 -3 128 128 128 128 0 65 0 65 -131 133 -131 132 -222 -2 -221 -3 -3 -65 -3 -65 -484 3 -485 2 0 583 0 582 -171 170 c-94 94 -283 288 -421 433 -170 178 -257 262 -272 263 -14 0 -52 38 -121 120 -159 190 -145 158 -145 344 0 224 -11 258 -161 480 -63 94 -116 177 -119 186 -3 9 -26 39 -52 67 l-46 52 -236 0 -237 0 -29 -66z m534 -1 c26 -28 46 -58 46 -70 0 -13 4 -23 9 -23 4 0 58 -75 119 -167 142 -216 152 -246 152 -469 0 -185 -14 -152 144 -339 72 -86 117 -131 132 -133 15 -2 109 -93 263 -255 132 -139 319 -331 415 -427 l176 -175 0 -432 0 -433 -35 0 c-31 0 -35 -3 -35 -25 0 -21 -5 -25 -30 -25 l-30 0 0 -70 0 -70 65 0 65 0 0 -60 0 -60 485 0 c424 0 485 -2 485 -15 0 -8 9 -15 20 -15 18 0 20 7 20 80 l0 80 208 0 209 0 126 -127 127 -128 0 -55 0 -55 -122 -122 -123 -123 -212 0 -213 0 0 80 c0 73 -2 80 -20 80 -13 0 -20 -7 -20 -20 0 -19 -7 -20 -95 -20 l-95 0 0 -60 0 -60 -100 0 -100 0 0 -30 0 -30 300 0 300 0 0 -425 0 -425 -165 0 -165 0 0 -30 0 -30 60 0 60 0 0 -210 0 -210 120 0 120 0 0 -245 0 -245 -515 0 c-337 0 -515 -3 -515 -10 0 -6 27 -10 60 -10 l60 0 0 -65 0 -65 120 0 120 0 0 -90 0 -90 -40 0 -40 0 0 -110 0 -110 -80 0 -80 0 0 -180 0 -180 120 0 120 0 0 -295 0 -295 -495 0 -495 0 0 -100 0 -100 -262 0 -263 0 -122 122 c-98 98 -123 128 -123 150 l0 28 -85 0 -85 0 0 -239 0 -238 46 -7 c26 -3 228 -6 450 -6 l404 0 0 -25 c0 -21 5 -25 30 -25 l30 0 0 90 0 90 230 0 c230 0 230 0 230 22 0 15 -35 55 -107 124 l-108 103 293 1 294 0 -30 -37 c-17 -21 -62 -69 -101 -106 -39 -38 -71 -77 -71 -88 0 -18 8 -19 110 -19 l110 0 0 -240 0 -240 -425 0 -425 0 0 30 c0 27 -3 30 -30 30 -25 0 -30 -4 -30 -25 l0 -25 -297 0 c-164 0 -463 -3 -665 -7 l-368 -6 0 -354 c0 -218 -4 -360 -10 -371 -6 -9 -36 -114 -68 -232 -47 -173 -81 -271 -173 -493 -103 -252 -117 -280 -147 -297 -30 -18 -53 -20 -273 -20 l-239 0 -45 93 c-24 50 -98 234 -163 407 -157 414 -156 409 -160 898 l-3 372 -449 0 -450 0 0 25 c0 21 -5 25 -30 25 -25 0 -30 -4 -30 -25 l0 -25 -820 0 -820 0 0 335 0 335 -310 0 -310 0 0 175 0 175 35 0 c19 0 35 5 35 10 0 6 -16 10 -35 10 l-35 0 0 265 0 265 340 0 340 0 0 125 0 125 -60 0 -60 0 0 120 0 120 333 0 332 0 91 -128 90 -127 245 0 244 0 3 -52 3 -53 55 0 54 0 0 -245 0 -245 120 0 120 0 0 -210 0 -210 -65 0 -65 0 0 -185 0 -185 -25 0 c-21 0 -25 -5 -25 -30 l0 -30 95 0 c95 0 95 0 95 -25 0 -21 5 -25 30 -25 25 0 30 4 30 25 l0 25 458 0 459 0 233 -290 232 -290 182 1 181 0 235 289 235 289 103 0 102 1 0 30 c0 29 -1 30 -50 30 l-50 0 0 310 0 310 230 0 230 0 0 55 0 55 95 0 95 0 0 30 0 30 -135 0 -135 0 0 90 0 90 -95 0 -95 0 0 -85 0 -85 -225 0 -224 0 0 390 0 390 179 0 180 0 0 75 c0 68 -2 75 -20 75 -19 0 -20 7 -20 120 0 113 1 120 20 120 18 0 20 7 20 75 l0 75 -125 0 -125 0 0 245 0 245 125 0 125 0 0 115 0 115 -180 0 -180 0 0 25 c0 16 -6 25 -15 25 -9 0 -15 -9 -15 -25 l0 -25 -272 0 c-150 0 -267 4 -260 8 7 5 15 25 18 44 5 29 2 38 -17 52 -30 20 -58 20 -81 -1 -17 -16 -18 -4 -18 335 l0 352 -485 0 -485 0 0 -60 c0 -57 -1 -60 -25 -60 -20 0 -25 -5 -25 -25 l0 -25 110 0 110 0 0 -460 0 -460 -60 0 -60 0 0 -55 0 -55 60 0 60 0 0 -45 c0 -38 3 -45 20 -45 18 0 20 7 20 75 l0 75 212 0 213 0 107 -107 108 -108 0 -95 0 -95 -102 -102 -103 -103 -217 0 -218 0 0 75 c0 68 -2 75 -20 75 -18 0 -20 -7 -20 -70 l0 -70 -240 0 -240 0 0 85 0 85 -215 0 -215 0 0 -85 0 -85 -70 0 -70 0 0 -85 0 -85 70 0 70 0 0 -160 0 -160 -240 0 -240 0 0 260 0 260 60 0 60 0 0 125 0 125 -60 0 -60 0 0 175 0 175 75 0 75 0 0 75 0 75 165 0 165 0 0 -180 0 -180 215 0 215 0 0 25 c0 24 -2 25 -65 25 l-65 0 0 275 0 275 -150 0 -150 0 0 150 0 150 -665 0 -665 0 0 -545 0 -545 30 0 c26 0 30 4 30 27 0 20 17 44 62 90 l62 63 96 0 95 0 142 -142 143 -143 0 -157 0 -158 -90 0 c-89 0 -90 0 -90 -25 l0 -25 -130 0 -130 0 0 25 c0 25 -1 25 -80 25 l-80 0 0 90 0 90 -30 0 c-27 0 -30 -3 -30 -30 l0 -30 -335 0 -335 0 0 85 c0 69 -3 85 -15 85 -12 0 -15 19 -15 110 0 91 3 110 15 110 12 0 15 16 15 80 l0 80 150 0 150 0 0 510 0 510 65 0 65 0 0 65 0 65 -80 0 -80 0 0 222 0 223 327 327 328 328 455 0 c382 0 463 -3 505 -16 39 -12 90 -15 225 -13 123 2 190 -1 227 -11 43 -11 59 -11 90 -1 32 11 61 10 169 -3 169 -21 192 -20 367 6 l147 23 0 51 c0 28 29 205 64 395 l63 344 68 146 c53 114 73 148 94 157 46 20 238 259 276 343 38 85 142 212 210 257 24 16 69 58 99 94 l56 65 0 194 0 194 37 73 c46 89 40 83 183 185 63 45 116 90 118 99 2 9 -13 41 -33 73 l-37 57 28 64 27 64 223 0 223 0 45 -47z m1446 -2953 c0 -15 -7 -20 -25 -20 -18 0 -25 5 -25 20 0 15 7 20 25 20 18 0 25 -5 25 -20z m0 -90 l0 -60 -55 0 -55 0 0 60 0 60 55 0 55 0 0 -60z m860 -610 c0 -49 -1 -50 -30 -50 -29 0 -30 1 -30 50 0 49 1 50 30 50 29 0 30 -1 30 -50z m110 0 l0 -50 -50 0 -50 0 0 50 0 50 50 0 50 0 0 -50z m10 -90 c0 -19 -7 -20 -190 -20 -183 0 -190 1 -190 20 0 19 7 20 190 20 183 0 190 -1 190 -20z m-3588 -452 l3 -393 330 -2 c182 -2 410 -3 508 -3 l177 0 0 -95 0 -94 -122 -3 -123 -3 0 -260 0 -260 123 -3 122 -3 0 -53 c0 -45 -3 -54 -20 -59 -19 -5 -20 -14 -20 -137 0 -123 1 -132 20 -137 17 -5 20 -14 20 -59 l0 -54 -177 -2 -178 -3 0 -405 0 -405 240 0 240 0 3 83 3 82 74 0 74 0 3 -87 3 -88 133 -3 c73 -1 132 -7 132 -12 0 -5 -42 -11 -92 -12 l-93 -3 -3 -52 -3 -53 -227 -2 -227 -3 0 -325 0 -325 48 -3 c83 -5 50 -21 -51 -24 l-99 -3 -234 -285 -235 -285 -170 -3 -169 -2 -233 290 -233 290 -472 -2 -472 -3 -3 -22 c-2 -13 -7 -23 -12 -23 -5 0 -10 10 -12 23 -3 21 -8 22 -95 25 -51 1 -93 7 -93 12 0 5 10 10 23 12 22 3 22 5 25 185 l2 182 63 3 62 3 0 225 0 225 -117 3 -118 3 0 614 0 615 195 0 194 0 3 -82 3 -83 259 -2 c142 -1 261 -4 264 -8 3 -3 107 -5 231 -5 l226 0 107 107 108 108 0 105 0 105 -113 113 -113 113 -227 -3 -227 -3 -2 485 -3 485 -110 5 c-60 3 -99 7 -85 10 23 5 25 10 28 63 l3 57 464 0 465 0 2 -392z m-1710 -175 l3 -148 147 -3 148 -3 2 -272 3 -272 65 -6 c38 -3 -16 -6 -132 -7 l-198 -2 -2 178 -3 177 -255 0 -255 0 -3 -267 -2 -268 60 0 60 0 0 -105 0 -105 -60 0 -60 0 0 -270 0 -270 -44 0 -44 0 -92 130 c-82 115 -96 130 -121 130 -16 0 -29 4 -29 10 0 5 39 11 88 12 l87 3 3 250 2 249 -67 68 -67 68 -185 0 -185 0 -68 -67 c-44 -44 -68 -75 -68 -90 0 -13 -4 -23 -10 -23 -7 0 -10 182 -10 525 l0 525 645 0 644 0 3 -147z m1822 -109 c36 -35 7 -76 -62 -90 -27 -5 -32 -3 -32 12 0 14 3 15 12 6 7 -7 16 -12 21 -12 5 0 1 7 -7 16 -9 8 -16 24 -16 34 0 10 7 26 16 34 8 9 24 16 34 16 10 0 26 -7 34 -16z m-2174 -319 l0 -55 -55 0 -55 0 0 55 0 55 55 0 55 0 0 -55z m30 -15 l0 -70 -70 0 c-40 0 -70 4 -70 10 0 6 27 10 60 10 l60 0 0 60 c0 33 4 60 10 60 6 0 10 -30 10 -70z m1240 -115 l0 -45 -50 0 -50 0 0 45 0 45 50 0 50 0 0 -45z m-1632 -248 l63 -63 -3 -72 -3 -72 -135 135 -135 135 75 0 76 0 62 -63z m732 -367 c0 -5 -25 -10 -55 -10 l-55 0 0 -55 0 -55 55 0 c30 0 55 -4 55 -10 0 -6 -28 -10 -65 -10 l-65 0 0 75 0 75 65 0 c37 0 65 -4 65 -10z m0 -65 l0 -45 -50 0 -50 0 0 45 0 45 50 0 50 0 0 -45z m4730 -70 l0 -55 -55 0 -55 0 0 55 0 55 55 0 55 0 0 -55z m110 0 l0 -55 -50 0 -50 0 0 55 0 55 50 0 50 0 0 -55z m0 -355 l0 -100 -30 0 -30 0 0 100 0 100 30 0 30 0 0 -100z m-6180 -105 l0 -115 -55 0 -55 0 0 115 0 115 55 0 55 0 0 -115z m1330 55 l0 -40 -45 0 -45 0 0 40 0 40 45 0 45 0 0 -40z m3080 -953 c0 -15 39 -61 128 -150 l128 -127 274 2 275 3 3 98 3 97 112 0 112 0 110 -108 110 -107 -230 -5 -230 -5 -3 -87 c-1 -49 -7 -88 -12 -88 -5 0 -10 10 -12 23 l-3 22 -445 6 c-245 3 -446 6 -447 7 -2 1 -3 101 -3 222 l0 220 65 0 c61 0 65 -1 65 -23z"/>
<path d="M6940 3675 l0 -175 -90 0 c-83 0 -90 1 -90 20 0 19 -7 20 -95 20 l-95 0 0 125 0 125 -60 0 -60 0 0 -125 0 -125 -205 0 -205 0 0 -25 0 -25 295 0 295 0 0 -120 0 -120 65 0 65 0 0 45 0 45 90 0 90 0 0 -235 0 -235 485 0 485 0 0 490 0 490 -485 0 -485 0 0 -175z m-380 80 c0 -23 -3 -25 -50 -25 -47 0 -50 2 -50 25 0 23 3 25 50 25 47 0 50 -2 50 -25z m0 -120 l0 -85 -50 0 -50 0 0 85 0 85 50 0 50 0 0 -85z m190 -240 l0 -135 -55 0 -55 0 0 120 0 120 -295 0 c-256 0 -295 2 -295 15 0 13 46 15 350 15 l350 0 0 -135z m500 25 l0 -70 -240 0 -240 0 0 70 0 70 240 0 240 0 0 -70z m410 5 l0 -65 55 0 55 0 0 -55 0 -55 -110 0 -110 0 0 120 0 120 55 0 55 0 0 -65z"/>
<path d="M2570 2845 l0 -335 425 0 425 0 0 335 0 335 -425 0 -425 0 0 -335z m540 245 l0 -50 -140 0 -140 0 0 50 0 50 140 0 140 0 0 -50z m130 -170 l0 -110 -270 0 -270 0 0 110 0 110 270 0 270 0 0 -110z m-10 -175 l0 -55 -55 0 -55 0 0 55 0 55 55 0 55 0 0 -55z"/>
</g>
<g id="layer104" fill="#58ddc3" stroke="none">
<path d="M5158 4603 c-9 -10 -23 -33 -33 -52 -18 -36 -12 -67 27 -123 17 -24 26 -28 69 -28 27 0 49 2 49 5 0 3 -11 28 -25 55 l-25 48 25 56 25 56 -49 0 c-33 0 -53 -5 -63 -17z"/>
<path d="M6018 4273 c-9 -10 -23 -33 -32 -51 -19 -38 -13 -70 24 -122 19 -26 27 -30 71 -30 46 0 49 2 49 25 0 15 -6 25 -14 25 -7 0 -19 14 -26 30 -10 24 -10 36 0 60 7 17 19 30 26 30 8 0 14 10 14 25 0 23 -3 25 -48 25 -34 0 -54 -5 -64 -17z"/>
<path d="M9558 6423 c-9 -10 -23 -33 -33 -52 -18 -36 -12 -67 27 -123 17 -24 26 -28 69 -28 27 0 49 2 49 5 0 3 -11 28 -25 55 l-25 49 24 56 25 55 -48 0 c-33 0 -53 -5 -63 -17z"/>
<path d="M1288 4523 c-9 -10 -23 -33 -33 -52 -18 -36 -12 -67 27 -123 17 -24 26 -28 67 -28 40 0 47 3 48 20 1 11 -2 18 -6 15 -5 -2 -16 14 -26 36 -18 40 -18 40 6 87 13 26 25 50 27 55 2 4 -19 7 -46 7 -34 0 -54 -5 -64 -17z"/>
</g>
<g id="layer105" fill="#eae8ea" stroke="none">
<path d="M5800 9744 c-17 -36 -30 -72 -30 -80 0 -8 16 -40 35 -70 19 -30 35 -56 35 -59 0 -2 -51 -40 -112 -83 -140 -99 -144 -103 -191 -194 l-37 -73 0 -194 0 -194 -52 -62 c-29 -34 -70 -72 -92 -86 -66 -41 -187 -188 -221 -268 -22 -52 -58 -104 -133 -193 -57 -68 -118 -131 -136 -140 -27 -15 -43 -42 -100 -165 l-69 -148 -63 -344 c-35 -190 -64 -365 -64 -391 l0 -47 -152 -23 -153 -24 -166 18 c-136 15 -172 16 -200 6 -28 -10 -43 -10 -84 2 -38 12 -88 14 -216 10 -133 -4 -176 -1 -221 12 -48 14 -121 16 -520 16 l-463 0 -333 -333 -332 -332 2 -235 3 -235 78 -3 77 -3 0 -44 0 -44 -62 -3 -63 -3 -3 -507 -2 -507 -148 -3 -147 -3 -3 -75 c-2 -52 -7 -77 -17 -83 -22 -12 -22 -242 0 -254 10 -6 15 -31 17 -88 l3 -80 350 0 350 0 3 28 c7 59 21 23 24 -60 l3 -88 78 -3 c141 -5 81 -21 -91 -24 l-167 -3 -3 -242 -2 -243 -278 -2 -277 -3 0 -465 0 -465 307 -3 308 -2 2 -333 3 -332 835 0 835 0 3 23 c2 12 7 22 12 22 5 0 10 -10 12 -22 l3 -23 447 -3 447 -2 3 -368 c4 -483 3 -478 159 -892 66 -173 141 -358 167 -410 l47 -95 252 -3 c252 -2 253 -2 290 22 36 22 45 40 152 302 91 222 126 322 173 494 32 118 62 223 68 232 6 11 10 152 10 368 l0 350 188 1 c103 1 401 5 662 8 l475 6 3 23 c5 31 20 28 24 -6 l3 -27 440 0 440 0 0 255 0 255 -108 3 -109 3 103 107 103 107 66 5 65 5 0 310 0 310 -117 3 -118 3 0 159 0 159 118 3 117 3 3 272 2 273 333 2 332 3 0 260 0 260 -117 3 -118 3 -2 207 -3 207 -57 3 c-32 2 -58 7 -58 12 0 5 72 11 163 12 l162 3 0 440 0 440 -102 3 c-73 2 -103 6 -103 15 0 9 54 11 227 9 l227 -3 128 128 128 128 0 65 0 65 -131 133 -131 132 -222 -2 -221 -3 -3 -65 -3 -65 -484 3 -485 2 0 583 0 582 -171 170 c-94 94 -283 288 -421 433 -170 178 -257 262 -272 263 -14 0 -52 38 -121 120 -159 190 -145 158 -145 344 0 224 -11 258 -161 480 -63 94 -116 177 -119 186 -3 9 -26 39 -52 67 l-46 52 -236 0 -237 0 -29 -66z m534 -1 c26 -28 46 -58 46 -70 0 -13 4 -23 9 -23 4 0 58 -75 119 -167 142 -216 152 -246 152 -469 0 -185 -14 -152 144 -339 72 -86 117 -131 132 -133 15 -2 109 -93 263 -255 132 -139 319 -331 415 -427 l176 -175 0 -432 0 -433 -35 0 c-31 0 -35 -3 -35 -25 0 -21 -5 -25 -30 -25 l-30 0 0 -70 0 -70 65 0 65 0 0 -60 0 -60 485 0 c424 0 485 -2 485 -15 0 -8 9 -15 20 -15 18 0 20 7 20 80 l0 80 208 0 209 0 126 -127 127 -128 0 -55 0 -55 -122 -122 -123 -123 -212 0 -213 0 0 80 c0 73 -2 80 -20 80 -13 0 -20 -7 -20 -20 0 -19 -7 -20 -95 -20 l-95 0 0 -60 0 -60 -100 0 -100 0 0 -30 0 -30 300 0 300 0 0 -425 0 -425 -165 0 -165 0 0 -30 0 -30 60 0 60 0 0 -210 0 -210 120 0 120 0 0 -245 0 -245 -515 0 c-337 0 -515 -3 -515 -10 0 -6 27 -10 60 -10 l60 0 0 -65 0 -65 120 0 120 0 0 -90 0 -90 -40 0 -40 0 0 -110 0 -110 -80 0 -80 0 0 -180 0 -180 120 0 120 0 0 -295 0 -295 -495 0 -495 0 0 -100 0 -100 -262 0 -263 0 -122 122 c-98 98 -123 128 -123 150 l0 28 -85 0 -85 0 0 -239 0 -238 46 -7 c26 -3 228 -6 450 -6 l404 0 0 -25 c0 -21 5 -25 30 -25 l30 0 0 90 0 90 230 0 c230 0 230 0 230 22 0 15 -35 55 -107 124 l-108 103 293 1 294 0 -30 -37 c-17 -21 -62 -69 -101 -106 -39 -38 -71 -77 -71 -88 0 -18 8 -19 110 -19 l110 0 0 -240 0 -240 -425 0 -425 0 0 30 c0 27 -3 30 -30 30 -25 0 -30 -4 -30 -25 l0 -25 -297 0 c-164 0 -463 -3 -665 -7 l-368 -6 0 -354 c0 -218 -4 -360 -10 -371 -6 -9 -36 -114 -68 -232 -47 -173 -81 -271 -173 -493 -103 -252 -117 -280 -147 -297 -30 -18 -53 -20 -273 -20 l-239 0 -45 93 c-24 50 -98 234 -163 407 -157 414 -156 409 -160 898 l-3 372 -449 0 -450 0 0 25 c0 21 -5 25 -30 25 -25 0 -30 -4 -30 -25 l0 -25 -820 0 -820 0 0 335 0 335 -310 0 -310 0 0 175 0 175 35 0 c19 0 35 5 35 10 0 6 -16 10 -35 10 l-35 0 0 265 0 265 340 0 340 0 0 125 0 125 -60 0 -60 0 0 120 0 120 333 0 332 0 91 -128 90 -127 245 0 244 0 3 -52 3 -53 55 0 54 0 0 -245 0 -245 120 0 120 0 0 -210 0 -210 -65 0 -65 0 0 -185 0 -185 -25 0 c-21 0 -25 -5 -25 -30 l0 -30 95 0 c95 0 95 0 95 -25 0 -21 5 -25 30 -25 25 0 30 4 30 25 l0 25 458 0 459 0 233 -290 232 -290 182 1 181 0 235 289 235 289 103 0 102 1 0 30 c0 29 -1 30 -50 30 l-50 0 0 310 0 310 230 0 230 0 0 55 0 55 95 0 95 0 0 30 0 30 -135 0 -135 0 0 90 0 90 -95 0 -95 0 0 -85 0 -85 -225 0 -224 0 0 390 0 390 179 0 180 0 0 75 c0 68 -2 75 -20 75 -19 0 -20 7 -20 120 0 113 1 120 20 120 18 0 20 7 20 75 l0 75 -125 0 -125 0 0 245 0 245 125 0 125 0 0 115 0 115 -180 0 -180 0 0 25 c0 16 -6 25 -15 25 -9 0 -15 -9 -15 -25 l0 -25 -272 0 c-208 1 -283 4 -313 15 -35 12 -38 12 -21 -1 19 -14 19 -14 -3 -14 -20 0 -22 5 -20 38 1 20 2 198 1 395 l-2 357 -485 0 -485 0 0 -60 c0 -57 -1 -60 -25 -60 -20 0 -25 -5 -25 -25 l0 -25 110 0 110 0 0 -460 0 -460 -60 0 -60 0 0 -55 0 -55 60 0 60 0 0 -45 c0 -38 3 -45 20 -45 18 0 20 7 20 75 l0 75 212 0 213 0 107 -107 108 -108 0 -95 0 -95 -102 -102 -103 -103 -217 0 -218 0 0 75 c0 68 -2 75 -20 75 -18 0 -20 -7 -20 -70 l0 -70 -240 0 -240 0 0 85 0 85 -215 0 -215 0 0 -85 0 -85 -70 0 -70 0 0 -85 0 -85 70 0 70 0 0 -160 0 -160 -240 0 -240 0 0 260 0 260 60 0 60 0 0 125 0 125 -60 0 -60 0 0 175 0 175 75 0 75 0 0 75 0 75 165 0 165 0 0 -180 0 -180 215 0 215 0 0 25 c0 24 -2 25 -65 25 l-65 0 0 275 0 275 -150 0 -150 0 0 150 0 150 -665 0 -665 0 0 -545 0 -545 30 0 c26 0 30 4 30 27 0 20 17 44 62 90 l62 63 96 0 95 0 142 -142 143 -143 0 -157 0 -158 -90 0 c-89 0 -90 0 -90 -25 l0 -25 -130 0 -130 0 0 25 c0 25 -1 25 -80 25 l-80 0 0 90 0 90 -30 0 c-27 0 -30 -3 -30 -30 l0 -30 -335 0 -335 0 0 85 c0 69 -3 85 -15 85 -12 0 -15 19 -15 110 0 91 3 110 15 110 12 0 15 16 15 80 l0 80 150 0 150 0 0 510 0 510 65 0 65 0 0 65 0 65 -80 0 -80 0 0 222 0 223 327 327 328 328 455 0 c382 0 463 -3 505 -16 39 -12 90 -15 225 -13 123 2 190 -1 227 -11 43 -11 59 -11 90 -1 32 11 61 10 169 -3 169 -21 192 -20 367 6 l147 23 0 51 c0 28 29 205 64 395 l63 344 68 146 c53 114 73 148 94 157 46 20 238 259 276 343 38 85 142 212 210 257 24 16 69 58 99 94 l56 65 0 194 0 194 37 73 c46 89 40 83 183 185 63 45 116 90 118 99 2 9 -13 41 -33 73 l-37 57 28 64 27 64 223 0 223 0 45 -47z m1446 -2953 c0 -15 -7 -20 -25 -20 -18 0 -25 5 -25 20 0 15 7 20 25 20 18 0 25 -5 25 -20z m0 -90 l0 -60 -55 0 -55 0 0 60 0 60 55 0 55 0 0 -60z m860 -610 c0 -49 -1 -50 -30 -50 -29 0 -30 1 -30 50 0 49 1 50 30 50 29 0 30 -1 30 -50z m110 0 l0 -50 -50 0 -50 0 0 50 0 50 50 0 50 0 0 -50z m10 -90 c0 -19 -7 -20 -190 -20 -183 0 -190 1 -190 20 0 19 7 20 190 20 183 0 190 -1 190 -20z m-3588 -452 l3 -393 330 -2 c182 -2 410 -3 508 -3 l177 0 0 -95 0 -94 -122 -3 -123 -3 0 -260 0 -260 123 -3 122 -3 0 -53 c0 -45 -3 -54 -20 -59 -19 -5 -20 -14 -20 -137 0 -123 1 -132 20 -137 17 -5 20 -14 20 -59 l0 -54 -177 -2 -178 -3 0 -405 0 -405 240 0 240 0 3 83 3 82 74 0 74 0 3 -87 3 -88 133 -3 c73 -1 132 -7 132 -12 0 -5 -42 -11 -92 -12 l-93 -3 -3 -52 -3 -53 -227 -2 -227 -3 0 -325 0 -325 48 -3 c83 -5 50 -21 -51 -24 l-99 -3 -234 -285 -235 -285 -170 -3 -169 -2 -233 290 -233 290 -472 -2 -472 -3 -3 -22 c-2 -13 -7 -23 -12 -23 -5 0 -10 10 -12 23 -3 21 -8 22 -95 25 -51 1 -93 7 -93 12 0 5 10 10 23 12 22 3 22 5 25 185 l2 182 63 3 62 3 0 225 0 225 -117 3 -118 3 0 614 0 615 195 0 194 0 3 -82 3 -83 259 -2 c142 -1 261 -4 264 -8 3 -3 107 -5 231 -5 l226 0 107 107 108 108 0 105 0 105 -113 113 -113 113 -227 -3 -227 -3 -2 485 -3 485 -110 5 c-60 3 -99 7 -85 10 23 5 25 10 28 63 l3 57 464 0 465 0 2 -392z m-1710 -175 l3 -148 147 -3 148 -3 2 -272 3 -272 65 -6 c38 -3 -16 -6 -132 -7 l-198 -2 -2 178 -3 177 -255 0 -255 0 -3 -267 -2 -268 60 0 60 0 0 -105 0 -105 -60 0 -60 0 0 -270 0 -270 -44 0 -44 0 -92 130 c-82 115 -96 130 -121 130 -16 0 -29 4 -29 10 0 5 39 11 88 12 l87 3 3 250 2 249 -67 68 -67 68 -185 0 -185 0 -68 -67 c-44 -44 -68 -75 -68 -90 0 -13 -4 -23 -10 -23 -7 0 -10 182 -10 525 l0 525 645 0 644 0 3 -147z m-352 -428 l0 -55 -55 0 -55 0 0 55 0 55 55 0 55 0 0 -55z m30 -15 l0 -70 -70 0 c-40 0 -70 4 -70 10 0 6 27 10 60 10 l60 0 0 60 c0 33 4 60 10 60 6 0 10 -30 10 -70z m1240 -115 l0 -45 -50 0 -50 0 0 45 0 45 50 0 50 0 0 -45z m-1632 -248 l63 -63 -3 -72 -3 -72 -135 135 -135 135 75 0 76 0 62 -63z m732 -367 c0 -5 -25 -10 -55 -10 l-55 0 0 -55 0 -55 55 0 c30 0 55 -4 55 -10 0 -6 -28 -10 -65 -10 l-65 0 0 75 0 75 65 0 c37 0 65 -4 65 -10z m0 -65 l0 -45 -50 0 -50 0 0 45 0 45 50 0 50 0 0 -45z m4730 -70 l0 -55 -55 0 -55 0 0 55 0 55 55 0 55 0 0 -55z m110 0 l0 -55 -50 0 -50 0 0 55 0 55 50 0 50 0 0 -55z m0 -355 l0 -100 -30 0 -30 0 0 100 0 100 30 0 30 0 0 -100z m-6180 -105 l0 -115 -55 0 -55 0 0 115 0 115 55 0 55 0 0 -115z m1330 55 l0 -40 -45 0 -45 0 0 40 0 40 45 0 45 0 0 -40z m3080 -953 c0 -15 39 -61 128 -150 l128 -127 274 2 275 3 3 98 3 97 112 0 112 0 110 -108 110 -107 -230 -5 -230 -5 -3 -87 c-1 -49 -7 -88 -12 -88 -5 0 -10 10 -12 23 l-3 22 -445 6 c-245 3 -446 6 -447 7 -2 1 -3 101 -3 222 l0 220 65 0 c61 0 65 -1 65 -23z"/>
<path d="M5952 8780 c-25 -29 -52 -50 -63 -50 -11 0 -40 -17 -65 -37 -35 -29 -44 -44 -44 -68 0 -25 -18 -53 -90 -136 -84 -98 -89 -107 -90 -149 l0 -46 -240 -244 c-190 -194 -239 -251 -240 -272 0 -20 -17 -42 -70 -90 -38 -35 -70 -71 -70 -81 0 -10 14 -83 31 -162 25 -114 35 -145 48 -145 49 1 147 38 326 120 412 190 532 240 571 240 22 0 97 -11 169 -25 96 -19 162 -25 258 -25 l129 0 230 -130 c127 -71 237 -130 244 -130 7 0 27 25 44 55 17 30 37 55 44 55 6 0 26 24 44 53 43 72 43 115 -1 170 -19 23 -40 65 -47 92 -8 30 -30 69 -54 97 -40 47 -42 48 -98 48 l-58 0 0 38 c0 33 -18 60 -155 237 -86 110 -165 210 -175 223 -11 12 -20 34 -20 50 -1 20 -29 59 -111 152 l-111 125 -126 43 c-70 23 -136 42 -147 42 -11 -1 -39 -22 -63 -50z m199 -12 l126 -43 106 -120 c81 -91 107 -127 107 -148 0 -18 14 -45 39 -75 22 -26 100 -126 175 -222 116 -149 135 -180 138 -215 l3 -40 60 -5 c56 -5 64 -8 96 -45 21 -24 41 -60 49 -90 7 -27 28 -69 47 -92 19 -24 33 -53 33 -69 0 -33 -43 -110 -69 -124 -10 -5 -31 -31 -46 -57 -16 -27 -29 -49 -30 -51 -1 -1 -106 56 -233 128 l-230 130 -129 0 c-96 0 -162 6 -258 25 -72 14 -152 25 -179 25 -51 0 -136 -35 -581 -240 -170 -78 -301 -127 -313 -116 -1 2 -16 67 -33 145 l-31 141 71 66 c53 49 71 73 71 92 1 21 51 78 240 271 l240 244 0 46 c1 43 6 52 90 150 71 82 90 111 90 135 0 24 10 39 40 64 21 17 47 32 58 32 11 0 39 22 63 49 24 27 49 49 54 50 6 1 67 -18 136 -41z"/>
<path d="M6063 7372 c-76 -20 -107 -33 -118 -49 -12 -17 -26 -23 -55 -23 -59 0 -279 -111 -310 -156 l-23 -34 -123 0 -124 0 0 -330 0 -330 -155 0 -155 0 0 60 0 60 -90 0 -90 0 0 -180 0 -180 243 0 243 0 -1 -27 c0 -25 4 -28 33 -28 30 0 32 -2 32 -32 l0 -33 55 0 55 0 0 -190 c0 -149 3 -190 13 -190 16 0 97 -82 97 -98 0 -9 32 -12 115 -12 l115 0 0 -105 c0 -87 3 -105 15 -105 12 0 15 18 15 105 l0 105 485 0 485 0 0 428 0 428 28 -1 c23 0 27 4 27 28 l-1 27 158 0 158 0 0 310 0 310 -250 0 -250 0 -94 65 c-52 36 -103 65 -114 65 -12 0 -24 5 -27 10 -3 6 -15 10 -26 10 -11 0 -62 27 -115 60 -59 38 -105 60 -122 59 -15 0 -73 -13 -129 -27z m241 -52 c53 -33 104 -60 115 -60 11 0 23 -4 26 -10 3 -5 15 -10 27 -10 11 0 62 -29 114 -65 l94 -65 245 0 245 0 0 -290 0 -290 -182 -2 -183 -3 -3 -452 -2 -453 -483 -1 c-265 0 -530 0 -588 1 l-107 1 -61 61 -61 61 -2 241 -3 241 -327 3 -328 2 0 160 0 160 70 0 69 0 3 -57 3 -58 170 0 170 0 3 328 2 327 119 0 119 0 27 35 c36 48 247 155 304 155 29 0 44 6 58 23 13 17 45 30 118 49 55 14 108 27 117 27 9 1 60 -26 112 -59z m562 -831 c10 -17 -13 -36 -27 -22 -12 12 -4 33 11 33 5 0 12 -5 16 -11z m-1504 -304 c-3 -18 -11 -25 -28 -25 -36 0 -33 37 4 43 15 2 28 5 28 6 1 0 -1 -10 -4 -24z m118 -30 l0 -55 -50 0 -50 0 0 55 0 55 50 0 50 0 0 -55z"/>
<path d="M3310 6630 l0 -60 -95 0 -95 0 0 -150 0 -150 -65 0 -65 0 0 -240 0 -240 485 0 485 0 0 25 c0 25 0 25 -95 25 l-95 0 0 185 0 185 405 0 405 0 0 180 0 180 -95 0 c-57 0 -95 -4 -95 -10 0 -6 -105 -10 -295 -10 -190 0 -295 4 -295 10 0 6 -68 10 -185 10 l-185 0 0 60 0 60 -60 0 -60 0 0 -60z m110 0 l0 -50 -50 0 -50 0 0 50 0 50 50 0 50 0 0 -50z m365 -90 c4 -6 118 -10 310 -10 192 0 306 4 310 10 3 6 40 10 81 10 l74 0 0 -160 0 -160 -402 -2 -403 -3 0 -200 0 -200 95 -6 c52 -3 -115 -6 -372 -7 l-468 -2 0 220 0 219 63 3 62 3 3 148 3 147 319 0 c202 0 321 -4 325 -10z"/>
<path d="M2386 6409 l-56 -51 0 -82 0 -82 53 -52 53 -52 80 0 80 0 52 53 52 53 0 75 0 75 -58 57 -58 57 -71 0 -71 0 -56 -51z m251 -11 l53 -52 0 -75 0 -75 -47 -48 -47 -48 -80 0 -80 0 -48 47 -48 47 0 80 0 79 53 48 c51 48 53 48 122 49 l69 0 53 -52z"/>
<path d="M7112 5803 c2 -199 3 -201 5 -50 l4 157 124 0 125 0 0 -275 0 -275 -40 0 c-39 0 -40 -1 -40 -35 l0 -35 -360 0 -360 0 0 -355 0 -355 -60 0 -60 0 0 -65 0 -65 60 0 c52 0 76 -7 176 -55 l117 -55 253 0 254 0 0 -145 0 -145 -60 0 -60 0 0 -55 0 -55 240 0 240 0 0 95 0 95 60 0 c33 0 60 4 60 10 0 6 -27 10 -60 10 l-60 0 0 150 0 150 360 0 360 0 0 305 0 305 60 0 60 0 0 30 0 30 -60 0 -60 0 0 240 0 240 -120 0 -120 0 0 65 c0 63 -1 65 -25 65 -21 0 -25 5 -25 30 0 28 -3 30 -35 30 l-35 0 0 110 0 110 -460 0 -460 0 2 -207z m900 -15 l3 -203 177 -3 178 -2 2 -238 3 -237 58 -3 c31 -2 57 -7 57 -12 0 -5 -26 -10 -57 -12 l-58 -3 -3 -302 -2 -303 -358 -2 -357 -3 -3 -252 -2 -253 -160 0 -160 0 -2 198 -3 197 -255 3 -255 2 -112 52 -113 52 0 403 0 403 195 0 194 0 3 -57 3 -58 200 0 200 0 0 385 0 385 -127 3 -128 3 0 29 0 30 440 0 440 0 2 -202z m78 -33 c0 -20 -5 -25 -25 -25 -20 0 -25 5 -25 25 0 20 5 25 25 25 20 0 25 -5 25 -25z m50 -90 l0 -55 -50 0 -50 0 0 55 0 55 50 0 50 0 0 -55z m-780 -345 c0 -27 -3 -30 -30 -30 -27 0 -30 3 -30 30 0 27 3 30 30 30 27 0 30 -3 30 -30z m10 -95 l0 -55 -185 0 -185 0 0 55 0 55 185 0 185 0 0 -55z m-810 -710 l0 -55 -50 0 -50 0 0 55 0 55 50 0 50 0 0 -55z m740 -520 l0 -45 -50 0 -50 0 0 45 0 45 50 0 50 0 0 -45z"/>
<path d="M6450 3665 l0 -125 -205 0 -205 0 0 -25 0 -25 295 0 295 0 0 -120 0 -120 65 0 65 0 0 45 0 45 250 0 250 0 0 80 0 80 -250 0 c-243 0 -250 1 -250 20 0 19 -7 20 -95 20 l-95 0 0 125 0 125 -60 0 -60 0 0 -125z m110 90 c0 -23 -3 -25 -50 -25 -47 0 -50 2 -50 25 0 23 3 25 50 25 47 0 50 -2 50 -25z m0 -120 l0 -85 -50 0 -50 0 0 85 0 85 50 0 50 0 0 -85z m190 -240 l0 -135 -55 0 -55 0 0 120 0 120 -295 0 c-256 0 -295 2 -295 15 0 13 46 15 350 15 l350 0 0 -135z m500 25 l0 -70 -240 0 -240 0 0 70 0 70 240 0 240 0 0 -70z"/>
<path d="M7540 3370 l0 -130 120 0 120 0 0 65 0 65 -55 0 -55 0 0 65 0 65 -65 0 -65 0 0 -130z m120 55 l0 -65 55 0 55 0 0 -55 0 -55 -110 0 -110 0 0 120 0 120 55 0 55 0 0 -65z"/>
<path d="M1850 3065 l0 -115 -35 0 c-19 0 -35 -4 -35 -10 0 -6 98 -10 275 -10 l275 0 0 -330 0 -330 520 0 520 0 0 30 0 30 -485 0 -485 0 0 365 0 365 60 0 60 0 0 60 0 60 -335 0 -335 0 0 -115z m540 -320 l0 -425 485 0 c478 0 485 0 485 -20 0 -20 -7 -20 -510 -20 l-510 0 0 330 0 330 -240 0 -240 0 0 115 0 115 265 0 265 0 0 -425z m120 375 l0 -50 -50 0 -50 0 0 50 0 50 50 0 50 0 0 -50z"/>
<path d="M2820 3095 l0 -55 -65 0 -65 0 0 -120 0 -120 210 0 210 0 0 -60 0 -60 64 0 63 0 7 92 c3 50 6 131 6 180 l0 88 -65 0 -65 0 0 55 0 55 -150 0 -150 0 0 -55z m290 -5 l0 -50 -140 0 -140 0 0 50 0 50 140 0 140 0 0 -50z m130 -170 l0 -110 -270 0 -270 0 0 110 0 110 270 0 270 0 0 -110z m-10 -175 l0 -55 -55 0 -55 0 0 55 0 55 55 0 55 0 0 -55z"/>
<path d="M5440 230 l0 -60 60 0 60 0 0 60 0 60 -60 0 -60 0 0 -60z m110 0 l0 -50 -50 0 -50 0 0 50 0 50 50 0 50 0 0 -50z"/>
</g>


</svg>