<!DOCTYPE svg PUBLIC "-//W3C//DTD SVG 20010904//EN" "http://www.w3.org/TR/2001/REC-SVG-20010904/DTD/svg10.dtd">
<svg version="1.0" xmlns="http://www.w3.org/2000/svg" width="1024px" height="1024px" viewBox="0 0 10240 10240" preserveAspectRatio="xMidYMid meet">
<g id="layer101" fill="#7e7f7e" stroke="none">
<path d="M3187 9433 c-4 -3 -7 -350 -7 -769 l0 -764 -192 -2 -193 -3 -3 -537 -2 -538 -303 -2 -302 -3 -3 -572 -2 -573 -393 -2 -392 -3 -3 -183 c-2 -156 0 -183 13 -188 13 -5 15 -43 15 -275 l0 -269 -203 0 -203 0 -105 -112 c-103 -111 -507 -553 -542 -595 -18 -21 -17 -24 158 -257 l177 -236 354 0 354 0 2 -268 3 -267 382 -3 383 -2 2 -723 3 -722 232 -3 232 -2 3 -118 3 -117 148 -3 147 -3 0 -64 c0 -46 4 -66 15 -72 10 -6 15 -31 17 -83 l3 -75 165 0 165 0 3 78 c5 137 21 83 24 -81 l3 -157 700 0 700 0 3 147 3 148 329 0 329 0 3 -148 3 -147 325 0 325 0 3 357 2 357 265 441 265 441 0 119 0 119 113 3 112 3 0 365 0 365 -182 3 c-153 2 -183 5 -183 17 0 12 37 15 238 17 l237 3 5 155 6 155 4 -150 5 -150 590 0 590 0 3 688 2 687 290 0 290 0 2 -267 3 -268 397 -3 397 -2 12 22 c18 35 350 561 366 579 10 13 13 115 13 532 l0 516 -201 271 -201 270 -644 0 -644 0 -2 768 -3 767 -205 0 -205 0 -3 -112 -3 -113 -214 0 c-207 0 -215 1 -215 20 0 18 8 20 153 22 l152 3 0 630 0 630 -443 3 c-435 2 -444 2 -449 -18 -5 -17 -15 -20 -112 -22 l-106 -3 -3 -152 -3 -153 -294 0 -294 0 -3 28 -3 27 -372 3 -373 2 -2 203 -3 202 -462 3 -462 2 -3 93 -3 92 -546 3 c-300 1 -549 -1 -552 -5z m2685 -1225 l3 -193 285 0 285 0 3 193 2 192 170 0 170 0 0 -195 0 -195 80 0 80 0 0 -75 0 -75 35 0 c28 0 35 -4 35 -20 0 -19 -7 -20 -115 -20 l-115 0 2 -362 3 -363 423 -3 422 -2 0 -290 0 -289 -152 -3 -153 -3 -3 -167 c-2 -140 -5 -168 -17 -168 -13 0 -15 52 -17 363 l-3 362 -820 0 -820 0 -3 -112 c-3 -112 -3 -113 -27 -113 -24 0 -24 1 -27 113 l-3 112 -312 3 -313 2 0 365 0 364 123 3 122 3 3 383 2 382 325 0 325 0 2 -192z m-1222 -942 l0 -365 -100 -3 -99 -3 -3 75 -3 75 -185 0 -185 0 -4 -35 -4 -35 -6 30 c-5 25 -12 31 -38 33 -28 3 -32 7 -35 35 l-3 32 -215 0 -215 0 -3 -27 -3 -28 -165 0 -164 0 0 175 0 175 533 2 532 3 3 113 3 112 179 0 180 0 0 -364z m185 -1251 l760 0 3 113 c3 111 3 112 27 112 24 0 24 -1 27 -112 l3 -113 148 -3 147 -3 0 -209 0 -210 -290 0 -289 0 -3 153 -3 152 -245 0 -245 0 -3 -262 -2 -263 -25 0 -25 0 -2 258 -3 257 -452 3 -453 2 0 60 c0 53 2 60 20 60 18 0 20 7 20 80 l0 80 55 0 55 0 2 308 3 307 5 -385 5 -385 760 0z m-1423 228 l3 -228 88 -3 87 -3 0 -59 0 -60 -49 0 -49 0 -121 -127 -121 -127 0 -98 0 -98 -227 -2 -228 -3 0 -325 0 -325 228 -3 227 -2 0 -103 0 -102 127 -127 128 -128 187 0 188 0 0 -55 0 -54 -77 -3 -78 -3 -3 -347 -2 -348 -560 0 -560 0 -2 233 -3 232 -342 3 -343 2 0 400 0 400 363 2 362 3 3 843 2 842 385 0 385 0 2 -227z m5308 -573 l0 -500 -330 0 -330 0 0 500 0 500 330 0 330 0 0 -500z m-1928 193 l3 -78 267 -3 267 -2 3 -153 3 -152 153 -3 152 -3 0 -284 0 -284 -132 -3 -133 -3 -3 -75 -3 -75 -154 3 -155 3 -2 457 -3 457 -188 0 -187 0 0 138 0 137 55 0 54 0 3 -77z m-1920 -960 l3 -118 537 -3 538 -2 2 -193 3 -192 350 -3 c192 -1 356 0 364 3 8 3 169 7 358 8 l343 2 0 -22 c0 -22 -3 -23 -94 -23 l-94 0 -116 -117 c-105 -108 -116 -122 -118 -158 -1 -22 -5 25 -8 105 l-5 145 -470 0 -470 0 -5 -135 c-3 -74 -7 -121 -10 -105 l-5 30 -382 3 -383 2 0 35 c0 34 -1 35 -40 35 l-40 0 0 40 0 40 -282 -2 -283 -3 0 -395 0 -395 113 -3 c111 -3 112 -3 112 -27 0 -24 -1 -24 -112 -27 l-113 -3 0 -165 0 -165 78 -3 77 -3 0 -289 0 -290 -60 0 -60 0 -2 188 -3 187 -550 0 -550 0 -3 -187 -2 -188 -135 0 -135 0 0 250 0 250 568 2 567 3 0 595 0 595 -72 3 -73 3 0 54 0 55 303 2 302 3 3 348 2 347 25 0 c24 0 24 0 27 -117z m1171 -1431 c32 -2 47 -7 47 -17 0 -12 -33 -15 -182 -17 l-183 -3 0 -210 0 -210 108 -3 107 -3 0 -266 0 -267 -262 -443 -262 -443 -333 0 -333 0 0 60 0 60 313 2 312 3 0 325 0 325 -157 3 -158 3 0 358 c0 352 0 359 20 364 20 5 20 12 18 169 l-3 163 -52 3 c-48 3 -53 5 -53 27 0 24 1 24 108 27 l107 3 3 113 3 112 323 0 c290 0 325 2 337 17 8 9 37 34 64 56 l50 40 5 -174 5 -174 48 -3z m-3173 -712 l0 -249 -72 -3 -73 -3 0 -240 0 -240 308 -3 307 -2 0 -120 c0 -69 -4 -120 -9 -120 -6 0 -11 24 -13 53 l-3 52 -352 3 -353 2 0 560 0 560 130 0 130 0 0 -250z m470 -1545 c0 -8 -4 -15 -10 -15 -5 0 -10 7 -10 15 0 8 5 15 10 15 6 0 10 -7 10 -15z"/>
</g>
<g id="layer102" fill="#a5a389" stroke="none">
<path d="M3187 9433 c-4 -3 -7 -350 -7 -769 l0 -764 -192 -2 -193 -3 -3 -537 -2 -538 -303 -2 -302 -3 -3 -572 -2 -573 -393 -2 -392 -3 -3 -183 c-2 -156 0 -183 13 -188 13 -5 15 -43 15 -275 l0 -269 -203 0 -203 0 -105 -112 c-103 -111 -507 -553 -542 -595 -18 -21 -17 -24 158 -257 l177 -236 354 0 354 0 2 -268 3 -267 382 -3 383 -2 2 -723 3 -722 232 -3 232 -2 3 -118 3 -117 148 -3 147 -3 0 -64 c0 -46 4 -66 15 -72 10 -6 15 -31 17 -83 l3 -75 165 0 165 0 3 78 c5 137 21 83 24 -81 l3 -157 700 0 700 0 3 147 3 148 329 0 329 0 3 -148 3 -147 325 0 325 0 3 357 2 357 265 441 265 441 0 119 0 119 113 3 112 3 0 365 0 365 -182 3 c-153 2 -183 5 -183 17 0 12 37 15 238 17 l237 3 5 155 6 155 4 -150 5 -150 590 0 590 0 3 688 2 687 290 0 290 0 2 -267 3 -268 397 -3 397 -2 12 22 c18 35 350 561 366 579 10 13 13 115 13 532 l0 516 -201 271 -201 270 -644 0 -644 0 -2 768 -3 767 -205 0 -205 0 -3 -112 -3 -113 -214 0 c-207 0 -215 1 -215 20 0 18 8 20 153 22 l152 3 0 630 0 630 -443 3 c-435 2 -444 2 -449 -18 -5 -17 -15 -20 -112 -22 l-106 -3 -3 -152 -3 -153 -294 0 -294 0 -3 28 -3 27 -372 3 -373 2 -2 203 -3 202 -462 3 -462 2 -3 93 -3 92 -546 3 c-300 1 -549 -1 -552 -5z m613 -53 l0 -30 -60 0 -60 0 0 30 0 30 60 0 60 0 0 -30z m460 -195 l0 -225 -220 0 -220 0 0 225 0 225 220 0 220 0 0 -225z m940 -160 l0 -205 375 0 375 0 0 -30 0 -30 315 0 315 0 0 155 0 155 110 0 c103 0 110 1 110 20 0 20 7 20 430 20 l430 0 0 -615 0 -615 -155 0 -155 0 0 -40 0 -40 235 0 235 0 0 115 0 115 190 0 190 0 0 -770 0 -770 648 0 648 0 197 -265 197 -266 0 -506 c0 -409 -3 -509 -13 -522 -20 -23 -355 -555 -363 -574 -6 -15 -42 -17 -390 -17 l-384 0 0 270 0 270 -385 0 -385 0 0 -75 0 -75 75 0 75 0 0 -195 0 -195 -120 0 -120 0 0 -305 0 -305 -455 0 -455 0 0 35 c0 31 -3 35 -25 35 -25 0 -25 -1 -25 -80 l0 -80 -70 0 -70 0 0 -75 0 -75 -170 0 -170 0 0 -35 0 -35 185 0 185 0 0 -290 0 -290 -75 0 c-68 0 -75 -2 -75 -20 0 -16 -7 -20 -34 -20 l-33 0 -7 -61 c-3 -34 -6 -108 -6 -165 l0 -103 -227 -378 c-124 -208 -227 -379 -229 -381 -1 -2 -31 14 -67 36 l-65 39 -41 -64 c-23 -35 -41 -68 -41 -72 0 -4 32 -22 70 -41 l70 -34 0 -348 0 -348 -310 0 -310 0 0 150 0 150 -350 0 -350 0 0 -150 0 -150 -205 0 -205 0 0 560 0 560 -96 0 -96 0 7 29 c6 28 5 29 -63 50 -113 34 -114 34 -132 -26 l-15 -53 -282 0 c-276 0 -283 0 -283 20 0 19 -7 20 -240 20 l-240 0 0 65 0 65 -70 0 -70 0 0 160 0 160 75 0 75 0 0 270 0 270 -150 0 -150 0 0 -580 0 -580 353 0 354 0 6 -274 c3 -151 3 -338 0 -415 l-6 -141 -148 0 -149 0 0 270 0 270 -400 0 -400 0 0 725 0 725 -385 0 -385 0 0 270 0 270 -170 0 -170 0 0 30 0 30 -120 0 -120 0 0 -30 0 -30 -68 0 -67 0 -169 225 c-150 201 -167 227 -155 242 8 10 124 138 258 285 l243 268 109 0 109 0 0 70 0 70 165 0 165 0 0 290 c0 251 -2 290 -15 290 -13 0 -15 26 -15 170 l0 170 395 0 395 0 0 575 0 575 305 0 305 0 0 460 0 460 80 0 80 0 0 80 0 80 649 0 649 0 7 158 c5 86 5 390 2 675 l-6 517 465 0 464 0 0 -205z m-1860 -380 l0 -65 -65 0 -65 0 0 65 0 65 65 0 65 0 0 -65z m770 -455 l0 -300 -70 0 -70 0 0 300 0 300 70 0 70 0 0 -300z m150 -235 l0 -65 -70 0 -70 0 0 65 0 65 70 0 70 0 0 -65z m-1300 -155 l0 -70 -70 0 -70 0 0 70 0 70 70 0 70 0 0 -70z m5150 -2995 l0 -65 -65 0 -65 0 0 65 0 65 65 0 65 0 0 -65z m-7010 -140 l0 -65 -97 0 -96 0 24 28 c82 94 92 102 131 102 l38 0 0 -65z m7020 -365 l0 -30 -80 0 -80 0 0 -310 0 -310 -495 0 -495 0 0 35 0 35 460 0 460 0 0 305 0 305 115 0 115 0 0 -30z m0 -420 l0 -380 -575 0 -575 0 0 70 0 70 500 0 500 0 0 310 0 310 75 0 75 0 0 -380z m-1210 -315 l0 -65 -60 0 -60 0 0 65 0 65 60 0 60 0 0 -65z m-5830 30 l0 -25 -110 0 -110 0 0 25 0 25 110 0 110 0 0 -25z m1790 -835 l0 -249 -72 -3 -73 -3 0 -240 0 -240 308 -3 307 -2 0 -120 c0 -69 -4 -120 -9 -120 -6 0 -11 24 -13 53 l-3 52 -352 3 -353 2 0 560 0 560 130 0 130 0 0 -250z m3930 55 c0 -12 -14 -15 -65 -15 -51 0 -65 3 -65 15 0 12 14 15 65 15 51 0 65 -3 65 -15z m0 -55 l0 -30 -100 0 -100 0 0 30 0 30 100 0 100 0 0 -30z m-3930 -660 l0 -60 -65 0 -65 0 0 60 0 60 65 0 65 0 0 -60z m1189 -30 c65 -18 64 -17 37 -121 -92 -346 -130 -469 -145 -469 -29 0 -136 36 -136 46 0 5 34 134 75 287 l75 278 29 -6 c17 -3 46 -10 65 -15z m1999 -334 c28 -16 52 -33 52 -38 0 -12 -49 -96 -61 -103 -4 -3 -35 8 -69 25 -57 29 -60 32 -49 53 24 43 62 98 68 95 3 -2 30 -16 59 -32z m-2708 -121 c0 -138 -1 -145 -20 -145 -19 0 -20 7 -20 145 0 138 1 145 20 145 19 0 20 -7 20 -145z m-360 -230 c0 -117 -4 -185 -10 -185 -6 0 -10 30 -10 70 l0 70 -150 0 -150 0 0 115 0 115 160 0 160 0 0 -185z m350 -30 c0 -63 -4 -105 -10 -105 -6 0 -10 42 -10 105 0 63 4 105 10 105 6 0 10 -42 10 -105z m17 -52 c-2 -32 -3 -8 -3 52 0 61 1 87 3 58 2 -29 2 -78 0 -110z m-17 -88 c0 -8 -4 -15 -10 -15 -5 0 -10 7 -10 15 0 8 5 15 10 15 6 0 10 -7 10 -15z m120 -260 l0 -65 -45 0 -45 0 0 65 0 65 45 0 45 0 0 -65z m30 0 c0 -37 -4 -65 -10 -65 -6 0 -10 28 -10 65 0 37 4 65 10 65 6 0 10 -28 10 -65z"/>
<path d="M3560 5110 l0 -530 485 0 485 0 0 530 0 530 -485 0 -485 0 0 -530z m630 255 l0 -115 75 0 75 0 0 -140 0 -140 -75 0 -75 0 0 -115 0 -115 -185 0 -185 0 0 370 0 370 185 0 185 0 0 -115z"/>
</g>
<g id="layer103" fill="#c7c6bc" stroke="none">
<path d="M3187 9433 c-4 -3 -7 -350 -7 -769 l0 -764 -192 -2 -193 -3 -3 -537 -2 -538 -303 -2 -302 -3 -3 -572 -2 -573 -393 -2 -392 -3 -3 -183 c-2 -156 0 -183 13 -188 13 -5 15 -43 15 -275 l0 -269 -203 0 -203 0 -105 -112 c-103 -111 -507 -553 -542 -595 -18 -21 -17 -24 158 -257 l177 -236 354 0 354 0 2 -268 3 -267 382 -3 383 -2 2 -723 3 -722 232 -3 232 -2 3 -118 3 -117 148 -3 147 -3 0 -64 c0 -46 4 -66 15 -72 10 -6 15 -31 17 -83 l3 -75 165 0 165 0 3 78 c5 137 21 83 24 -81 l3 -157 700 0 700 0 3 147 3 148 329 0 329 0 3 -148 3 -147 325 0 325 0 3 357 2 357 265 441 265 441 0 119 0 119 113 3 112 3 0 365 0 365 -182 3 c-153 2 -183 5 -183 17 0 12 37 15 238 17 l237 3 5 155 6 155 4 -150 5 -150 590 0 590 0 3 688 2 687 290 0 290 0 2 -267 3 -268 397 -3 397 -2 12 22 c18 35 350 561 366 579 10 13 13 115 13 532 l0 516 -201 271 -201 270 -644 0 -644 0 -2 768 -3 767 -205 0 -205 0 -3 -112 -3 -113 -214 0 c-207 0 -215 1 -215 20 0 18 8 20 153 22 l152 3 0 630 0 630 -443 3 c-435 2 -444 2 -449 -18 -5 -17 -15 -20 -112 -22 l-106 -3 -3 -152 -3 -153 -294 0 -294 0 -3 28 -3 27 -372 3 -373 2 -2 203 -3 202 -462 3 -462 2 -3 93 -3 92 -546 3 c-300 1 -549 -1 -552 -5z m483 -53 l0 -40 70 0 70 0 0 -195 0 -195 230 0 230 0 0 140 0 140 465 0 465 0 0 -205 0 -205 375 0 375 0 0 -30 0 -30 315 0 315 0 0 155 0 155 110 0 c103 0 110 1 110 20 0 20 7 20 430 20 l430 0 0 -615 0 -615 -155 0 -155 0 0 -40 0 -40 235 0 235 0 0 115 0 115 190 0 190 0 0 -770 0 -770 648 0 648 0 197 -265 197 -266 0 -506 c0 -409 -3 -509 -13 -522 -20 -23 -355 -555 -363 -574 -6 -15 -42 -17 -390 -17 l-384 0 0 270 0 270 -385 0 -385 0 0 -75 0 -75 75 0 75 0 0 -195 0 -195 -120 0 -120 0 0 -305 0 -305 -455 0 -455 0 0 35 c0 31 -3 35 -25 35 -25 0 -25 -1 -25 -80 l0 -80 -70 0 -70 0 0 -75 0 -75 -170 0 -170 0 0 -35 0 -35 185 0 185 0 0 -290 0 -290 -75 0 c-68 0 -75 -2 -75 -20 0 -16 -7 -20 -34 -20 l-33 0 -7 -61 c-3 -34 -6 -108 -6 -165 l0 -103 -227 -378 c-124 -208 -227 -379 -229 -381 -1 -2 -31 14 -67 36 l-65 39 -41 -64 c-23 -35 -41 -68 -41 -72 0 -4 32 -22 70 -41 l70 -34 0 -348 0 -348 -310 0 -310 0 0 150 0 150 -350 0 -350 0 0 -150 0 -150 -615 0 -615 0 0 75 0 75 -70 0 -70 0 -2 113 c-1 61 0 289 1 505 l4 392 -242 0 -241 0 0 65 0 65 -70 0 -70 0 0 160 0 160 75 0 75 0 0 270 0 270 -150 0 -150 0 0 -580 0 -580 353 0 354 0 6 -274 c3 -151 3 -338 0 -415 l-6 -141 -148 0 -149 0 0 270 0 270 -400 0 -400 0 0 725 0 725 -385 0 -385 0 0 270 0 270 -170 0 -170 0 0 30 0 30 -120 0 -120 0 0 -30 0 -30 -68 0 -67 0 -169 225 c-150 201 -167 227 -155 242 8 10 124 138 258 285 l243 268 109 0 109 0 0 70 0 70 165 0 165 0 0 290 c0 251 -2 290 -15 290 -13 0 -15 26 -15 170 l0 170 395 0 395 0 0 575 0 575 305 0 305 0 0 460 0 460 80 0 80 0 0 80 0 80 115 0 115 0 0 345 0 345 75 0 75 0 0 75 0 75 -75 0 -75 0 0 350 0 350 235 0 235 0 0 -40z m130 0 l0 -30 -60 0 -60 0 0 30 0 30 60 0 60 0 0 -30z m460 -195 l0 -225 -220 0 -220 0 0 225 0 225 220 0 220 0 0 -225z m-920 -540 l0 -65 -65 0 -65 0 0 65 0 65 65 0 65 0 0 -65z m-380 -845 l0 -70 -70 0 -70 0 0 70 0 70 70 0 70 0 0 -70z m5150 -2995 l0 -65 -65 0 -65 0 0 65 0 65 65 0 65 0 0 -65z m-7010 -140 l0 -65 -97 0 -96 0 24 28 c82 94 92 102 131 102 l38 0 0 -65z m7020 -365 l0 -30 -80 0 -80 0 0 -310 0 -310 -495 0 -495 0 0 35 0 35 460 0 460 0 0 305 0 305 115 0 115 0 0 -30z m0 -420 l0 -380 -575 0 -575 0 0 70 0 70 500 0 500 0 0 310 0 310 75 0 75 0 0 -380z m-1210 -315 l0 -65 -60 0 -60 0 0 65 0 65 60 0 60 0 0 -65z m-5830 30 l0 -25 -110 0 -110 0 0 25 0 25 110 0 110 0 0 -25z m1790 -835 l0 -249 -72 -3 -73 -3 0 -240 0 -240 308 -3 307 -2 0 -120 c0 -69 -4 -120 -9 -120 -6 0 -11 24 -13 53 l-3 52 -352 3 -353 2 0 560 0 560 130 0 130 0 0 -250z m3930 55 c0 -12 -14 -15 -65 -15 -51 0 -65 3 -65 15 0 12 14 15 65 15 51 0 65 -3 65 -15z m0 -55 l0 -30 -100 0 -100 0 0 30 0 30 100 0 100 0 0 -30z m-3930 -660 l0 -60 -65 0 -65 0 0 60 0 60 65 0 65 0 0 -60z m3188 -364 c28 -16 52 -33 52 -38 0 -12 -49 -96 -61 -103 -4 -3 -35 8 -69 25 -57 29 -60 32 -49 53 24 43 62 98 68 95 3 -2 30 -16 59 -32z m-2708 -121 c0 -138 -1 -145 -20 -145 -19 0 -20 7 -20 145 0 138 1 145 20 145 19 0 20 -7 20 -145z m-360 -230 c0 -117 -4 -185 -10 -185 -6 0 -10 30 -10 70 l0 70 -150 0 -150 0 0 115 0 115 160 0 160 0 0 -185z m350 -30 c0 -63 -4 -105 -10 -105 -6 0 -10 42 -10 105 0 63 4 105 10 105 6 0 10 -42 10 -105z m0 -140 c0 -8 -4 -15 -10 -15 -5 0 -10 7 -10 15 0 8 5 15 10 15 6 0 10 -7 10 -15z m120 -260 l0 -65 -45 0 -45 0 0 65 0 65 45 0 45 0 0 -65z m30 0 c0 -37 -4 -65 -10 -65 -6 0 -10 28 -10 65 0 37 4 65 10 65 6 0 10 -28 10 -65z"/>
<path d="M5200 8340 l0 -80 -75 0 -75 0 0 -75 0 -75 75 0 75 0 0 -230 0 -230 -125 0 -125 0 0 -385 0 -385 315 0 315 0 0 -115 c0 -93 3 -115 14 -115 10 0 1 -25 -31 -81 -25 -44 -43 -82 -41 -85 3 -2 26 34 52 81 39 71 51 85 71 85 l25 0 0 115 0 115 300 0 300 0 0 -80 0 -80 40 0 c39 0 40 -1 40 -35 0 -34 1 -35 40 -35 l40 0 0 115 0 115 425 0 425 0 0 -365 0 -365 35 0 35 0 0 58 0 57 37 0 c36 0 38 2 38 33 0 31 1 32 42 32 l43 0 0 80 0 80 75 0 75 0 0 235 0 235 75 0 75 0 0 75 0 75 -500 0 -500 0 0 230 0 230 40 0 40 0 0 40 0 40 40 0 40 0 0 75 0 75 35 0 c34 0 35 1 35 40 0 39 -1 40 -35 40 l-35 0 0 78 0 77 -80 80 -80 80 0 112 0 113 -190 0 -190 0 0 -195 0 -195 -270 0 -270 0 0 190 0 190 190 0 189 0 4 -72 3 -73 2 78 2 77 -540 0 -540 0 0 -80z m672 -132 l3 -193 285 0 285 0 3 193 2 192 170 0 170 0 0 -195 0 -195 80 0 80 0 0 -75 0 -75 35 0 c28 0 35 -4 35 -20 0 -19 -7 -20 -115 -20 l-115 0 2 -362 3 -363 423 -3 422 -2 0 -290 0 -289 -152 -3 -153 -3 -3 -167 c-2 -140 -5 -168 -17 -168 -13 0 -15 52 -17 363 l-3 362 -820 0 -820 0 -3 -112 c-3 -112 -3 -113 -27 -113 -24 0 -24 1 -27 113 l-3 112 -312 3 -313 2 0 365 0 364 123 3 122 3 3 383 2 382 325 0 325 0 2 -192z m-682 -23 l0 -65 -65 0 -65 0 0 65 0 65 65 0 65 0 0 -65z m1695 -85 l69 -70 -72 0 -72 0 0 70 c0 39 1 70 3 70 1 0 34 -31 72 -70z m75 -375 l0 -65 -70 0 -70 0 0 65 0 65 70 0 70 0 0 -65z m-80 -110 c0 -32 -2 -35 -30 -35 -28 0 -30 3 -30 35 0 32 2 35 30 35 28 0 30 -3 30 -35z m920 -580 l0 -65 -65 0 -65 0 0 65 0 65 65 0 65 0 0 -65z m-1380 -235 l0 -70 -70 0 -70 0 0 70 0 70 70 0 70 0 0 -70z m0 -110 c0 -27 -3 -30 -30 -30 -27 0 -30 3 -30 30 0 27 3 30 30 30 27 0 30 -3 30 -30z m1080 -280 l0 -70 -70 0 -70 0 0 70 0 70 70 0 70 0 0 -70z m-85 -115 c0 -22 -31 -33 -47 -17 -17 17 -1 44 24 40 15 -2 23 -10 23 -23z"/>
<path d="M4270 7610 l0 -40 -230 0 -230 0 0 -75 0 -75 -305 0 -305 0 0 -195 0 -195 185 0 185 0 0 30 0 30 200 0 200 0 0 -35 c0 -33 2 -35 35 -35 32 0 35 -2 35 -30 0 -25 4 -30 25 -30 22 0 25 4 25 35 l0 35 170 0 170 0 0 -500 0 -500 -170 0 -170 0 0 385 0 385 -25 0 -25 0 0 -300 0 -300 -55 0 -55 0 0 -85 c0 -78 -2 -85 -20 -85 -18 0 -20 -7 -20 -80 l0 -80 115 0 115 0 0 -70 0 -70 340 0 340 0 0 -190 0 -190 45 0 45 0 0 265 0 265 230 0 230 0 0 -155 0 -155 310 0 310 0 0 230 0 230 -150 0 -150 0 0 114 0 115 -25 3 -26 3 46 74 c26 40 44 75 42 77 -2 3 -26 -32 -53 -76 -27 -44 -55 -80 -61 -80 -9 0 -13 -20 -13 -65 0 -64 -1 -65 -21 -55 -45 25 -89 -12 -74 -60 8 -25 46 -35 74 -20 18 9 21 8 21 -10 0 -19 -6 -20 -175 -20 l-175 0 0 80 0 80 -70 0 -70 0 0 -80 0 -80 -310 0 -310 0 0 115 0 115 75 0 75 0 0 195 0 195 -75 0 -75 0 0 115 0 115 100 0 100 0 0 385 0 385 -200 0 -200 0 0 -40z m380 -344 l0 -365 -100 -3 -99 -3 -3 75 -3 75 -185 0 -185 0 -4 -35 -4 -35 -6 30 c-5 25 -12 31 -38 33 -28 3 -32 7 -35 35 l-3 32 -215 0 -215 0 -3 -27 -3 -28 -165 0 -164 0 0 175 0 175 533 2 532 3 3 113 3 112 179 0 180 0 0 -364z m-690 229 l0 -65 -70 0 -70 0 0 65 0 65 70 0 70 0 0 -65z m300 0 l0 -65 -145 0 -145 0 0 65 0 65 145 0 145 0 0 -65z m575 -1480 l760 0 3 113 c3 111 3 112 27 112 24 0 24 -1 27 -112 l3 -113 148 -3 147 -3 0 -209 0 -210 -290 0 -289 0 -3 153 -3 152 -245 0 -245 0 -3 -262 -2 -263 -25 0 -25 0 -2 258 -3 257 -452 3 -453 2 0 60 c0 53 2 60 20 60 18 0 20 7 20 80 l0 80 55 0 55 0 2 308 3 307 5 -385 5 -385 760 0z m-375 440 c0 -117 -4 -185 -10 -185 -6 0 -10 68 -10 185 0 117 4 185 10 185 6 0 10 -68 10 -185z m150 0 l0 -185 -70 0 -70 0 0 30 c0 29 1 30 50 30 l50 0 0 125 0 125 -50 0 c-49 0 -50 1 -50 30 l0 30 70 0 70 0 0 -185z m-50 0 l0 -115 -45 0 -45 0 0 115 0 115 45 0 45 0 0 -115z m660 -345 l0 -70 -60 0 -60 0 0 70 0 70 60 0 60 0 0 -70z m340 15 c26 -32 -13 -81 -47 -59 -35 22 -23 74 17 74 10 0 23 -7 30 -15z m-760 -320 l0 -65 -335 0 -335 0 0 65 0 65 335 0 335 0 0 -65z"/>
<path d="M2620 5645 l0 -845 -365 0 -365 0 0 -420 0 -420 345 0 345 0 0 -235 0 -235 370 0 370 0 0 -35 c0 -33 2 -35 35 -35 34 0 35 -1 35 -40 l0 -40 75 0 75 0 0 75 0 75 100 0 100 0 0 350 0 350 80 0 80 0 0 75 0 75 -193 0 -192 0 -123 123 -122 122 0 108 0 107 -190 0 -190 0 0 310 0 310 190 0 190 0 0 103 0 103 116 122 116 122 54 0 54 0 0 80 0 80 -90 0 -90 0 0 230 0 230 -405 0 -405 0 0 -845z m792 598 l3 -228 88 -3 87 -3 0 -59 0 -60 -49 0 -49 0 -121 -127 -121 -127 0 -98 0 -98 -227 -2 -228 -3 0 -325 0 -325 228 -3 227 -2 0 -103 0 -102 127 -127 128 -128 187 0 188 0 0 -55 0 -54 -77 -3 -78 -3 -3 -347 -2 -348 -560 0 -560 0 -2 233 -3 232 -342 3 -343 2 0 400 0 400 363 2 362 3 3 843 2 842 385 0 385 0 2 -227z m-532 -1133 l0 -310 -35 0 -35 0 0 310 0 310 35 0 35 0 0 -310z m510 -1655 c0 -21 -5 -25 -30 -25 -25 0 -30 4 -30 25 0 21 5 25 30 25 25 0 30 -4 30 -25z m140 -40 l0 -65 -65 0 -65 0 0 65 0 65 65 0 65 0 0 -65z"/>
<path d="M6660 5805 l0 -305 -115 0 -115 0 0 -310 0 -310 115 0 115 0 0 -235 0 -235 -345 0 -345 0 0 275 0 275 -70 0 -70 0 0 -80 0 -80 -470 0 -470 0 0 120 0 120 -45 0 -45 0 0 -270 0 -270 -70 0 -70 0 0 -40 0 -40 -40 0 -40 0 0 -40 0 -40 -195 0 -195 0 0 -75 0 -75 75 0 75 0 0 -580 0 -580 -570 0 -570 0 0 -270 0 -270 155 0 155 0 0 190 0 190 535 0 535 0 0 -255 0 -255 65 0 65 0 0 65 c0 51 3 65 15 65 13 0 15 41 15 310 l0 310 -80 0 -80 0 0 150 0 150 115 0 115 0 0 45 0 45 -115 0 -115 0 0 305 0 305 80 0 80 0 0 75 0 75 185 0 185 0 0 -40 0 -40 40 0 c39 0 40 -1 40 -35 l0 -35 385 0 385 0 0 -30 c0 -25 4 -30 25 -30 l25 0 0 135 0 135 210 0 210 0 0 -105 0 -105 75 0 75 0 0 105 0 105 170 0 170 0 0 -145 0 -145 25 0 c23 0 25 4 25 43 0 40 5 47 112 155 l111 112 99 0 98 0 0 70 c0 63 -2 70 -20 70 -16 0 -20 -7 -20 -30 l0 -30 -325 0 -325 0 0 615 0 615 170 0 170 0 0 -460 0 -460 155 0 155 0 0 -35 c0 -28 4 -35 20 -35 19 0 20 7 20 110 l0 110 135 0 135 0 0 305 0 305 -155 0 -155 0 0 155 0 155 -230 0 -230 0 0 155 0 155 -115 0 -115 0 0 -305z m140 230 l0 -65 -65 0 -65 0 0 65 0 65 65 0 65 0 0 -65z m80 -85 l0 -150 -35 0 -35 0 0 150 0 150 35 0 35 0 0 -150z m-88 -87 l3 -78 267 -3 267 -2 3 -153 3 -152 153 -3 152 -3 0 -284 0 -284 -132 -3 -133 -3 -3 -75 -3 -75 -154 3 -155 3 -2 457 -3 457 -188 0 -187 0 0 138 0 137 55 0 54 0 3 -77z m-132 -403 l0 -30 -80 0 -80 0 0 -245 0 -245 80 0 c79 0 80 0 80 -25 l0 -25 -110 0 -110 0 0 300 0 300 110 0 110 0 0 -30z m0 -275 l0 -235 -75 0 -75 0 0 235 0 235 75 0 75 0 0 -235z m30 0 c0 -150 -4 -235 -10 -235 -6 0 -10 85 -10 235 0 150 4 235 10 235 6 0 10 -85 10 -235z m-1818 -282 l3 -118 537 -3 538 -2 2 -193 3 -192 350 -3 c192 -1 356 0 364 3 8 3 169 7 358 8 l343 2 0 -22 c0 -22 -3 -23 -94 -23 l-94 0 -116 -117 c-105 -108 -116 -122 -118 -158 -1 -22 -5 25 -8 105 l-5 145 -470 0 -470 0 -5 -135 c-3 -74 -7 -121 -10 -105 l-5 30 -382 3 -383 2 0 35 c0 34 -1 35 -40 35 l-40 0 0 40 0 40 -282 -2 -283 -3 0 -395 0 -395 113 -3 c111 -3 112 -3 112 -27 0 -24 -1 -24 -112 -27 l-113 -3 0 -165 0 -165 78 -3 77 -3 0 -289 0 -290 -60 0 -60 0 -2 188 -3 187 -550 0 -550 0 -3 -187 -2 -188 -135 0 -135 0 0 250 0 250 568 2 567 3 0 595 0 595 -72 3 -73 3 0 54 0 55 303 2 302 3 3 348 2 347 25 0 c24 0 24 0 27 -117z m1088 -23 l0 -70 -60 0 -60 0 0 70 0 70 60 0 60 0 0 -70z m-1170 -460 l0 -70 -60 0 -60 0 0 70 0 70 60 0 60 0 0 -70z m-130 -40 c0 -28 -3 -30 -35 -30 -32 0 -35 2 -35 30 0 28 3 30 35 30 32 0 35 -2 35 -30z m1910 -165 l0 -95 -65 0 -65 0 0 95 0 95 65 0 65 0 0 -95z m-1840 -25 l0 -70 -75 0 -75 0 0 70 0 70 75 0 75 0 0 -70z m-30 -1765 l0 -55 -55 0 -55 0 0 55 0 55 55 0 55 0 0 -55z"/>
<path d="M5905 3785 l-60 -54 -327 -1 -328 0 0 -115 0 -115 -110 0 -110 0 0 -45 0 -45 55 0 55 0 0 -150 c0 -143 -1 -150 -20 -150 -20 0 -20 -7 -20 -380 l0 -380 160 0 160 0 0 -310 0 -310 -245 0 -245 0 0 75 0 75 -145 0 -145 0 0 -155 0 -155 426 2 427 3 263 445 264 445 0 283 0 282 -110 0 -110 0 0 195 0 195 185 0 185 0 0 35 0 35 -50 0 -50 0 0 175 c0 175 0 175 -22 175 -13 0 -48 -23 -83 -55z m138 -313 c32 -2 47 -7 47 -17 0 -12 -33 -15 -182 -17 l-183 -3 0 -210 0 -210 108 -3 107 -3 0 -266 0 -267 -262 -443 -262 -443 -333 0 -333 0 0 60 0 60 313 2 312 3 0 325 0 325 -157 3 -158 3 0 358 c0 352 0 359 20 364 20 5 20 12 18 169 l-3 163 -52 3 c-48 3 -53 5 -53 27 0 24 1 24 108 27 l107 3 3 113 3 112 323 0 c290 0 325 2 337 17 8 9 37 34 64 56 l50 40 5 -174 5 -174 48 -3z m-1183 -1672 l0 -70 -65 0 -65 0 0 -75 0 -75 -70 0 -70 0 0 145 0 145 135 0 135 0 0 -70z"/>
<path d="M3955 2098 c-11 -33 -56 -194 -86 -303 -17 -66 -42 -156 -54 -200 -13 -44 -20 -83 -17 -87 10 -10 171 -52 177 -47 5 5 130 455 145 523 5 23 12 50 15 58 6 15 -7 20 -158 64 -9 3 -19 -1 -22 -8z m91 -24 c36 -9 68 -23 71 -30 2 -7 -18 -93 -45 -191 -27 -98 -62 -224 -77 -281 -21 -75 -32 -101 -42 -98 -8 3 -42 13 -76 22 -34 9 -64 17 -66 19 -6 7 153 575 161 575 5 0 38 -7 74 -16z"/>
</g>
<g id="layer104" fill="#eae8e9" stroke="none">
<path d="M3187 9433 c-4 -3 -7 -350 -7 -769 l0 -764 -192 -2 -193 -3 -3 -537 -2 -538 -303 -2 -302 -3 -3 -572 -2 -573 -393 -2 -392 -3 -3 -183 c-2 -156 0 -183 13 -188 13 -5 15 -43 15 -275 l0 -269 -203 0 -203 0 -105 -112 c-103 -111 -507 -553 -542 -595 -18 -21 -17 -24 158 -257 l177 -236 354 0 354 0 2 -268 3 -267 382 -3 383 -2 2 -723 3 -722 232 -3 232 -2 3 -118 3 -117 148 -3 147 -3 0 -64 c0 -46 4 -66 15 -72 10 -6 15 -31 17 -83 l3 -75 165 0 165 0 3 78 c5 137 21 83 24 -81 l3 -157 700 0 700 0 3 147 3 148 329 0 329 0 3 -148 3 -147 325 0 325 0 3 357 2 357 265 441 265 441 0 119 0 119 113 3 112 3 0 365 0 365 -182 3 c-153 2 -183 5 -183 17 0 12 37 15 238 17 l237 3 5 155 6 155 4 -150 5 -150 590 0 590 0 3 688 2 687 290 0 290 0 2 -267 3 -268 397 -3 397 -2 12 22 c18 35 350 561 366 579 10 13 13 115 13 532 l0 516 -201 271 -201 270 -644 0 -644 0 -2 768 -3 767 -205 0 -205 0 -3 -112 -3 -113 -214 0 c-207 0 -215 1 -215 20 0 18 8 20 153 22 l152 3 0 630 0 630 -443 3 c-435 2 -444 2 -449 -18 -5 -17 -15 -20 -112 -22 l-106 -3 -3 -152 -3 -153 -294 0 -294 0 -3 28 -3 27 -372 3 -373 2 -2 203 -3 202 -462 3 -462 2 -3 93 -3 92 -546 3 c-300 1 -549 -1 -552 -5z m483 -53 l0 -40 70 0 70 0 0 -195 0 -195 230 0 230 0 -2 128 -2 127 -3 -122 -4 -123 -219 0 -220 0 0 220 c0 140 -4 220 -10 220 -5 0 -10 -11 -10 -25 0 -24 -3 -25 -60 -25 l-60 0 0 35 0 35 278 0 c152 0 282 -4 289 -8 7 -5 13 -40 15 -92 l3 -85 468 -3 467 -2 0 -205 0 -205 375 0 375 0 0 -30 0 -30 315 0 315 0 0 155 0 155 110 0 c103 0 110 1 110 20 0 20 7 20 430 20 l430 0 0 -615 0 -615 -155 0 -155 0 0 -40 0 -40 235 0 235 0 0 115 0 115 190 0 190 0 0 -770 0 -770 648 0 648 0 197 -265 197 -266 0 -506 c0 -409 -3 -509 -13 -522 -20 -23 -355 -555 -363 -574 -6 -15 -42 -17 -390 -17 l-384 0 0 270 0 270 -385 0 -385 0 0 -75 0 -75 75 0 75 0 0 -195 0 -195 -120 0 -120 0 0 -305 0 -305 -455 0 -455 0 0 35 c0 31 -3 35 -25 35 -25 0 -25 -1 -25 -80 l0 -80 -70 0 -70 0 0 -75 0 -75 -170 0 -170 0 0 -35 0 -35 185 0 185 0 0 -290 0 -290 -75 0 c-68 0 -75 -2 -75 -20 0 -16 -7 -20 -34 -20 l-33 0 -7 -61 c-3 -34 -6 -108 -6 -165 l0 -103 -227 -378 c-124 -208 -227 -379 -229 -381 -1 -2 -31 14 -67 36 l-65 39 -41 -64 c-23 -35 -41 -67 -41 -71 0 -4 29 -22 65 -40 36 -17 65 -30 65 -27 0 3 -27 18 -60 35 l-61 31 21 37 c12 20 29 47 39 60 l17 23 57 -32 c31 -18 57 -37 57 -43 0 -5 -13 -31 -30 -58 l-30 -48 0 -355 0 -355 -310 0 -310 0 0 150 0 150 -350 0 -350 0 0 -150 0 -150 -615 0 -615 0 0 75 0 75 -70 0 -70 0 -2 113 c-1 61 0 289 1 505 l4 392 -242 0 -241 0 0 65 0 65 -62 -2 -63 -2 58 -3 57 -4 0 -59 0 -60 -65 0 -65 0 0 225 0 225 75 0 75 0 0 270 0 270 -150 0 -150 0 0 -580 0 -580 353 0 354 0 6 -274 c3 -151 3 -338 0 -415 l-6 -141 -148 0 -149 0 0 270 0 270 -400 0 -400 0 0 725 0 725 -385 0 -385 0 0 270 0 270 -170 0 -170 0 0 30 0 30 -120 0 -120 0 0 -30 0 -30 -68 0 -67 0 -169 225 c-150 201 -167 227 -155 243 18 22 404 446 533 585 93 100 103 107 138 107 l38 0 0 -65 0 -64 -93 -4 -92 -3 98 -2 97 -2 0 70 0 70 165 0 165 0 0 290 c0 251 -2 290 -15 290 -13 0 -15 26 -15 170 l0 170 395 0 395 0 0 575 0 575 305 0 305 0 0 460 0 460 80 0 80 0 0 80 0 80 115 0 115 0 0 345 0 345 75 0 75 0 0 75 0 75 -75 0 -75 0 0 350 0 350 235 0 235 0 0 -40z m-330 -735 l0 -65 -65 0 -65 0 0 65 0 65 65 0 65 0 0 -65z m-380 -845 l0 -70 -70 0 -70 0 0 70 0 70 70 0 70 0 0 -70z m5150 -2995 l0 -65 -65 0 -65 0 0 65 0 65 65 0 65 0 0 -65z m10 -505 l0 -30 -80 0 -80 0 0 -310 0 -310 -495 0 -495 0 0 35 0 35 460 0 460 0 0 305 0 305 115 0 115 0 0 -30z m0 -420 l0 -380 -575 0 -575 0 0 70 0 70 500 0 500 0 0 310 0 310 75 0 75 0 0 -380z m-1210 -315 l0 -65 -60 0 -60 0 0 65 0 65 60 0 60 0 0 -65z m-5830 30 l0 -25 -110 0 -110 0 0 25 0 25 110 0 110 0 0 -25z m1790 -835 l0 -249 -72 -3 -73 -3 0 -240 0 -240 308 -3 307 -2 0 -120 c0 -69 -4 -120 -9 -120 -6 0 -11 24 -13 53 l-3 52 -352 3 -353 2 0 560 0 560 130 0 130 0 0 -250z m3930 55 c0 -12 -14 -15 -65 -15 -51 0 -65 3 -65 15 0 12 14 15 65 15 51 0 65 -3 65 -15z m0 -55 l0 -30 -100 0 -100 0 0 30 0 30 100 0 100 0 0 -30z m-3450 -1145 c0 -138 -1 -145 -20 -145 -19 0 -20 7 -20 145 0 138 1 145 20 145 19 0 20 -7 20 -145z m-360 -230 c0 -117 -4 -185 -10 -185 -6 0 -10 30 -10 70 l0 70 -150 0 -150 0 0 115 0 115 160 0 160 0 0 -185z m350 -30 c0 -63 -4 -105 -10 -105 -6 0 -10 42 -10 105 0 63 4 105 10 105 6 0 10 -42 10 -105z m0 -140 c0 -8 -4 -15 -10 -15 -5 0 -10 7 -10 15 0 8 5 15 10 15 6 0 10 -7 10 -15z m120 -260 l0 -65 -45 0 -45 0 0 65 0 65 45 0 45 0 0 -65z m30 0 c0 -37 -4 -65 -10 -65 -6 0 -10 28 -10 65 0 37 4 65 10 65 6 0 10 -28 10 -65z"/>
<path d="M3960 8190 l0 -310 155 0 155 0 0 75 0 75 -75 0 -75 0 0 235 0 235 -80 0 -80 0 0 -310z m150 0 l0 -300 -70 0 -70 0 0 300 0 300 70 0 70 0 0 -300z m150 -235 l0 -65 -70 0 -70 0 0 65 0 65 70 0 70 0 0 -65z"/>
<path d="M5200 8340 l0 -80 -75 0 -75 0 0 -75 0 -75 75 0 75 0 0 -230 0 -230 -125 0 -125 0 0 -385 0 -385 315 0 315 0 0 -115 c0 -93 3 -115 14 -115 10 0 1 -25 -31 -81 -25 -44 -43 -82 -41 -85 3 -2 26 34 52 81 39 71 51 85 71 85 l25 0 0 115 0 115 300 0 300 0 0 -80 0 -80 40 0 c39 0 40 -1 40 -35 0 -34 1 -35 40 -35 l40 0 0 115 0 115 425 0 425 0 0 -365 0 -365 35 0 35 0 0 58 0 57 37 0 c36 0 38 2 38 33 0 31 1 32 42 32 l43 0 0 80 0 80 75 0 75 0 0 310 0 310 -425 0 -425 0 0 230 0 230 40 0 40 0 0 40 0 40 40 0 40 0 0 75 0 75 35 0 c34 0 35 1 35 40 0 39 -1 40 -35 40 l-35 0 0 78 0 77 -80 80 -80 80 0 112 0 113 -190 0 -190 0 0 -195 0 -195 -270 0 -270 0 0 190 0 190 190 0 189 0 4 -72 3 -73 2 78 2 77 -540 0 -540 0 0 -80z m672 -132 l3 -193 285 0 285 0 3 193 2 192 170 0 170 0 0 -195 0 -195 80 0 80 0 0 -75 0 -75 35 0 c28 0 35 -4 35 -20 0 -19 -7 -20 -115 -20 l-115 0 2 -362 3 -363 423 -3 422 -2 0 -290 0 -289 -152 -3 -153 -3 -3 -167 c-2 -140 -5 -168 -17 -168 -13 0 -15 52 -17 363 l-3 362 -820 0 -820 0 -3 -112 c-3 -112 -3 -113 -27 -113 -24 0 -24 1 -27 113 l-3 112 -312 3 -313 2 0 365 0 364 123 3 122 3 3 383 2 382 325 0 325 0 2 -192z m-682 -23 l0 -65 -65 0 -65 0 0 65 0 65 65 0 65 0 0 -65z m1769 -152 c2 -2 -30 -3 -72 -3 l-77 0 0 72 0 72 72 -69 c40 -39 74 -71 77 -72z m1 -308 l0 -65 -70 0 -70 0 0 65 0 65 70 0 70 0 0 -65z m-80 -110 c0 -32 -2 -35 -30 -35 -28 0 -30 3 -30 35 0 32 2 35 30 35 28 0 30 -3 30 -35z m-460 -815 l0 -70 -70 0 -70 0 0 70 0 70 70 0 70 0 0 -70z m0 -110 c0 -27 -3 -30 -30 -30 -27 0 -30 3 -30 30 0 27 3 30 30 30 27 0 30 -3 30 -30z m1080 -280 l0 -70 -69 0 c-46 0 -71 -4 -75 -12 -4 -7 -4 2 -1 21 3 18 5 55 5 82 l0 49 70 0 70 0 0 -70z m-85 -115 c0 -22 -31 -33 -47 -17 -17 17 -1 44 24 40 15 -2 23 -10 23 -23z"/>
<path d="M4270 7610 l0 -40 -230 0 -230 0 2 -67 2 -68 3 63 4 62 69 0 69 0 4 -62 3 -63 2 63 2 62 145 0 145 0 0 -64 c0 -49 -4 -65 -16 -70 -9 -3 -247 -6 -530 -6 l-514 0 0 -195 0 -195 185 0 185 0 0 30 0 30 200 0 200 0 0 -35 c0 -33 2 -35 35 -35 32 0 35 -2 35 -30 0 -25 4 -30 25 -30 22 0 25 4 25 35 l0 35 170 0 170 0 0 -500 0 -500 -170 0 -170 0 0 385 0 385 -25 0 -25 0 0 -300 0 -300 -55 0 -55 0 0 -85 c0 -78 -2 -85 -20 -85 -18 0 -20 -7 -20 -80 l0 -80 115 0 115 0 0 -70 0 -70 340 0 340 0 0 -190 0 -190 45 0 45 0 0 265 0 265 230 0 230 0 0 -155 0 -155 310 0 310 0 0 230 0 230 -150 0 -150 0 0 114 0 115 -25 3 -26 3 46 74 c26 40 44 75 42 77 -2 3 -26 -32 -53 -76 -27 -44 -55 -80 -61 -80 -13 0 -19 -97 -14 -192 l3 -38 -176 0 -176 0 0 80 0 80 -70 0 -70 0 0 -80 0 -80 -310 0 -310 0 0 115 0 115 75 0 75 0 0 195 0 195 -75 0 -75 0 0 115 0 115 100 0 100 0 0 385 0 385 -200 0 -200 0 0 -40z m380 -344 l0 -365 -100 -3 -99 -3 -3 75 -3 75 -185 0 -185 0 -4 -35 -4 -35 -6 30 c-5 25 -12 31 -38 33 -28 3 -32 7 -35 35 l-3 32 -215 0 -215 0 -3 -27 -3 -28 -165 0 -164 0 0 175 0 175 533 2 532 3 3 113 3 112 179 0 180 0 0 -364z m185 -1251 l760 0 3 113 c3 111 3 112 27 112 24 0 24 -1 27 -112 l3 -113 148 -3 147 -3 0 -209 0 -210 -290 0 -289 0 -3 153 -3 152 -245 0 -245 0 -3 -262 -2 -263 -25 0 -25 0 -2 258 -3 257 -452 3 -453 2 0 60 c0 53 2 60 20 60 18 0 20 7 20 80 l0 80 55 0 55 0 2 308 3 307 5 -385 5 -385 760 0z m-375 440 c0 -117 -4 -185 -10 -185 -6 0 -10 68 -10 185 0 117 4 185 10 185 6 0 10 -68 10 -185z m150 0 l0 -185 -70 0 -70 0 0 30 c0 29 1 30 50 30 l50 0 0 125 0 125 -50 0 c-49 0 -50 1 -50 30 l0 30 70 0 70 0 0 -185z m-50 0 l0 -115 -45 0 -45 0 0 115 0 115 45 0 45 0 0 -115z m660 -345 l0 -70 -60 0 -60 0 0 70 0 70 60 0 60 0 0 -70z m-420 -305 l0 -65 -335 0 -335 0 0 65 0 65 335 0 335 0 0 -65z"/>
<path d="M7738 7103 l62 -4 0 -64 0 -64 -62 -4 -63 -3 68 -2 67 -2 0 75 0 75 -67 -2 -68 -2 63 -3z"/>
<path d="M2620 5645 l0 -845 -365 0 -365 0 0 -420 0 -420 345 0 345 0 0 -235 0 -235 370 0 370 0 0 -35 c0 -33 2 -35 35 -35 34 0 35 -1 35 -40 l0 -40 75 0 75 0 -2 73 -2 72 -3 -67 -4 -68 -64 0 -65 0 0 64 0 63 92 7 c50 3 126 6 170 6 l78 0 0 350 0 350 80 0 80 0 0 75 0 75 -193 0 -192 0 -123 123 -122 122 0 108 0 107 -190 0 -190 0 -3 303 -2 302 -3 -302 -2 -303 -35 0 -35 0 0 310 0 310 230 0 230 0 0 103 0 103 116 122 116 122 54 0 54 0 0 80 0 80 -90 0 -90 0 0 230 0 230 -405 0 -405 0 0 -845z m792 598 l3 -228 88 -3 87 -3 0 -59 0 -60 -49 0 -49 0 -121 -127 -121 -127 0 -98 0 -98 -227 -2 -228 -3 0 -325 0 -325 228 -3 227 -2 0 -103 0 -102 127 -127 128 -128 187 0 188 0 0 -55 0 -54 -77 -3 -78 -3 -3 -347 -2 -348 -560 0 -560 0 -2 233 -3 232 -342 3 -343 2 0 400 0 400 363 2 362 3 3 843 2 842 385 0 385 0 2 -227z m-22 -2788 c0 -21 -5 -25 -30 -25 -25 0 -30 4 -30 25 0 21 5 25 30 25 25 0 30 -4 30 -25z"/>
<path d="M8040 5670 l0 -520 350 0 350 0 0 520 0 520 -350 0 -350 0 0 -520z m680 0 l0 -500 -330 0 -330 0 0 500 0 500 330 0 330 0 0 -500z"/>
<path d="M6660 5805 l0 -305 -115 0 -115 0 0 -310 0 -310 115 0 115 0 0 -235 0 -235 -345 0 -345 0 0 275 0 275 -70 0 -70 0 0 -80 0 -80 -470 0 -470 0 0 120 0 120 -45 0 -45 0 0 -270 0 -270 -70 0 -70 0 0 -40 0 -40 -40 0 -40 0 0 -40 0 -40 -195 0 -195 0 0 -75 0 -75 75 0 75 0 0 -580 0 -580 -570 0 -570 0 0 -270 0 -270 155 0 155 0 0 190 0 190 535 0 535 0 0 -255 0 -255 65 0 65 0 0 65 c0 51 3 65 15 65 13 0 15 41 15 310 l0 310 -80 0 -80 0 0 150 0 150 115 0 115 0 0 45 0 45 -115 0 -115 0 0 380 0 380 265 0 265 0 0 -40 0 -40 40 0 c39 0 40 -1 40 -35 l0 -35 385 0 385 0 0 -30 c0 -25 4 -30 25 -30 l25 0 0 135 0 135 210 0 210 0 0 -105 0 -105 75 0 75 0 0 105 0 105 170 0 170 0 0 -145 0 -145 25 0 c23 0 25 4 25 43 0 40 5 47 112 155 l111 112 99 0 98 0 0 70 c0 63 -2 70 -20 70 -16 0 -20 -7 -20 -30 l0 -30 -325 0 -325 0 0 615 0 615 170 0 170 0 0 -460 0 -460 155 0 155 0 0 -35 c0 -28 4 -35 20 -35 19 0 20 7 20 110 l0 110 135 0 135 0 0 305 0 305 -155 0 -155 0 0 155 0 155 -230 0 -230 0 0 155 0 155 -115 0 -115 0 0 -305z m140 230 l0 -65 -65 0 -65 0 0 65 0 65 65 0 65 0 0 -65z m80 -85 l0 -150 -35 0 -35 0 0 150 0 150 35 0 35 0 0 -150z m-88 -87 l3 -78 267 -3 267 -2 3 -153 3 -152 153 -3 152 -3 0 -284 0 -284 -132 -3 -133 -3 -3 -75 -3 -75 -154 3 -155 3 -2 457 -3 457 -188 0 -187 0 0 138 0 137 55 0 54 0 3 -77z m-132 -403 l0 -30 -80 0 -80 0 0 -245 0 -245 80 0 c79 0 80 0 80 -25 l0 -25 -110 0 -110 0 0 300 0 300 110 0 110 0 0 -30z m0 -275 l0 -235 -75 0 -75 0 0 235 0 235 75 0 75 0 0 -235z m30 0 c0 -150 -4 -235 -10 -235 -6 0 -10 85 -10 235 0 150 4 235 10 235 6 0 10 -85 10 -235z m-1818 -282 l3 -118 537 -3 538 -2 2 -193 3 -192 350 -3 c192 -1 356 0 364 3 8 3 169 7 358 8 l343 2 0 -22 c0 -22 -3 -23 -94 -23 l-94 0 -116 -117 c-105 -108 -116 -122 -118 -158 -1 -22 -5 25 -8 105 l-5 145 -470 0 -470 0 -5 -135 c-3 -74 -7 -121 -10 -105 l-5 30 -382 3 -383 2 0 35 c0 34 -1 35 -40 35 l-40 0 0 40 0 40 -282 -2 -283 -3 0 -395 0 -395 113 -3 c111 -3 112 -3 112 -27 0 -24 -1 -24 -112 -27 l-113 -3 0 -165 0 -165 78 -3 77 -3 0 -289 0 -290 -60 0 -60 0 -2 188 -3 187 -550 0 -550 0 -3 -187 -2 -188 -135 0 -135 0 0 250 0 250 568 2 567 3 0 595 0 595 -72 3 -73 3 0 54 0 55 303 2 302 3 3 348 2 347 25 0 c24 0 24 0 27 -117z m1088 -23 l0 -70 -60 0 -60 0 0 70 0 70 60 0 60 0 0 -70z m-1170 -460 l0 -70 -60 0 -60 0 0 70 0 70 60 0 60 0 0 -70z m-130 -40 c0 -28 -3 -30 -35 -30 -32 0 -35 2 -35 30 0 28 3 30 35 30 32 0 35 -2 35 -30z m1910 -165 l0 -95 -65 0 -65 0 0 95 0 95 65 0 65 0 0 -95z m-1870 -1790 l0 -55 -55 0 -55 0 0 55 0 55 55 0 55 0 0 -55z"/>
<path d="M3810 5110 l0 -380 195 0 195 0 0 115 0 115 75 0 75 0 0 150 0 150 -75 0 -75 0 0 115 0 115 -195 0 -195 0 0 -380z m380 255 l0 -115 75 0 75 0 0 -140 0 -140 -75 0 -75 0 0 -115 0 -115 -185 0 -185 0 0 370 0 370 185 0 185 0 0 -115z"/>
<path d="M3240 5110 c0 -127 2 -150 15 -150 13 0 15 23 15 150 0 127 -2 150 -15 150 -13 0 -15 -23 -15 -150z m17 -72 c-1 -40 -3 -8 -3 72 0 80 2 112 3 73 2 -40 2 -106 0 -145z"/>
<path d="M4730 4180 l0 -59 -67 -4 -68 -3 73 -2 72 -2 0 65 c0 36 -2 65 -5 65 -3 0 -5 -27 -5 -60z"/>
<path d="M5905 3785 l-60 -54 -327 -1 -328 0 0 -115 0 -115 -110 0 -110 0 0 -45 0 -45 55 0 55 0 0 -150 c0 -143 -1 -150 -20 -150 -20 0 -20 -7 -20 -380 l0 -380 160 0 160 0 0 -310 0 -310 -245 0 -245 0 0 75 0 75 -145 0 -145 0 0 -155 0 -155 73 2 72 2 -67 3 -68 4 0 144 0 145 135 0 135 0 0 -70 0 -70 -65 0 -65 0 0 -80 0 -80 351 2 352 3 263 445 264 445 0 283 0 282 -110 0 -110 0 0 195 0 195 185 0 185 0 0 35 0 35 -50 0 -50 0 0 175 c0 175 0 175 -22 175 -13 0 -48 -23 -83 -55z m138 -313 c32 -2 47 -7 47 -17 0 -12 -33 -15 -182 -17 l-183 -3 0 -210 0 -210 108 -3 107 -3 0 -266 0 -267 -262 -443 -262 -443 -333 0 -333 0 0 60 0 60 313 2 312 3 0 325 0 325 -157 3 -158 3 0 358 c0 352 0 359 20 364 20 5 20 12 18 169 l-3 163 -52 3 c-48 3 -53 5 -53 27 0 24 1 24 108 27 l107 3 3 113 3 112 323 0 c290 0 325 2 337 17 8 9 37 34 64 56 l50 40 5 -174 5 -174 48 -3z"/>
</g>


</svg>