<!DOCTYPE svg PUBLIC "-//W3C//DTD SVG 20010904//EN" "http://www.w3.org/TR/2001/REC-SVG-20010904/DTD/svg10.dtd">
<svg version="1.0" xmlns="http://www.w3.org/2000/svg" width="1024px" height="1024px" viewBox="0 0 10240 10240" preserveAspectRatio="xMidYMid meet">
<g id="layer101" fill="#7e7e7e" stroke="none">
<path d="M2335 9947 c-3 -6 -4 -156 -3 -332 l3 -320 293 -3 292 -2 0 -445 0 -445 -240 0 -239 0 -3 158 -3 157 -239 3 c-167 2 -243 -1 -252 -9 -12 -9 -14 -110 -14 -580 l0 -568 -117 -3 -118 -3 0 -215 0 -215 383 -3 382 -2 0 -660 0 -660 -962 -2 -963 -3 0 -405 0 -405 673 -3 672 -2 0 -715 0 -715 -272 -2 -273 -3 0 -970 0 -970 290 0 290 0 3 213 2 212 25 0 c18 0 24 -6 27 -27 3 -27 5 -28 75 -31 l73 -3 2 -462 3 -462 177 -3 178 -2 2 -288 3 -287 178 -3 c172 -2 179 -2 184 18 5 20 12 20 583 20 572 0 578 0 583 -20 5 -20 12 -20 174 -18 l168 3 3 191 2 192 -219 238 -220 239 -1 338 0 337 510 0 510 0 0 -105 0 -105 -162 -2 -163 -3 0 -245 0 -245 632 -3 633 -2 2 -233 3 -232 290 0 290 0 3 232 2 233 528 2 527 3 3 952 2 953 378 2 377 3 3 847 2 848 588 2 587 3 0 225 c0 290 -12 461 -33 477 -14 12 -14 32 -4 195 11 159 10 184 -3 194 -11 8 -15 38 -17 120 l-3 109 -518 3 c-512 2 -519 2 -524 -18 -4 -17 -14 -20 -54 -20 l-49 0 0 69 0 70 38 3 37 3 0 715 0 715 -127 3 -128 3 -2 412 -3 412 -1015 0 -1015 0 -3 -122 -3 -123 -59 0 -60 0 0 265 0 264 158 3 157 3 0 370 0 370 -535 0 -535 0 -3 -72 -3 -73 -299 0 -300 0 -2 238 -3 237 -1108 3 c-885 2 -1109 0 -1112 -11z m1635 -1182 l0 -365 -165 0 -165 0 0 365 0 365 165 0 165 0 0 -365z m1192 -222 l3 -588 375 0 375 0 3 23 c3 20 9 22 62 22 l60 0 2 -197 3 -198 418 -3 417 -2 0 -60 0 -60 -397 -2 -398 -3 0 -255 0 -255 138 -3 137 -3 0 -134 0 -134 -157 -3 -158 -3 -3 -282 -2 -283 160 0 c153 0 160 -1 160 -20 0 -19 -8 -20 -397 -22 l-398 -3 -3 -97 -3 -98 -239 0 -240 0 0 383 0 382 180 180 180 180 -2 135 -3 135 -330 5 -330 5 0 335 0 335 -107 3 -108 3 0 584 0 585 300 0 300 0 2 -587z m-2240 -685 l3 -223 458 -3 457 -2 0 -315 0 -315 -237 -2 -238 -3 -3 -277 -2 -278 -240 0 -240 0 -2 558 -3 557 -297 3 -298 2 0 140 0 139 78 3 77 3 3 118 3 117 239 0 240 0 2 -222z m4490 -505 l3 -248 200 -3 199 -2 33 -32 33 -32 0 -948 0 -947 -132 -3 -133 -3 0 -115 0 -115 113 -3 112 -3 0 -454 0 -455 -422 -2 -423 -3 -3 -972 -2 -973 -233 -2 -232 -3 -3 -77 -3 -78 -97 1 c-60 1 -84 4 -62 8 l35 6 3 152 3 153 237 2 237 3 0 1035 0 1035 -237 3 -238 2 0 405 0 405 278 2 277 3 0 490 0 490 -117 3 c-109 2 -118 4 -118 22 0 18 9 20 163 22 l162 3 0 280 0 280 -162 3 -163 2 0 135 0 135 238 2 237 3 3 318 2 317 105 0 105 0 2 -247z m-2692 -773 l0 -59 -157 -3 -158 -3 0 -290 0 -290 158 -3 157 -3 0 -24 c0 -24 0 -24 -117 -27 l-118 -3 -5 -120 -5 -120 -295 0 -295 0 0 -450 0 -450 143 -3 142 -3 0 -64 0 -65 -282 -2 -283 -3 -3 -357 -2 -358 -260 0 -260 0 -2 178 -3 177 -417 3 -418 2 0 410 0 410 105 87 105 88 273 5 272 5 0 275 0 275 -57 3 -58 3 0 154 0 155 358 2 357 3 3 263 2 262 560 0 560 0 0 -60z m1320 -1895 l0 -404 -152 -3 -153 -3 0 -135 0 -135 388 -3 387 -2 0 -720 0 -720 -232 -2 -233 -3 0 -330 0 -330 35 -5 c19 -3 -17 -7 -80 -10 l-115 -5 -3 -77 -3 -78 -219 0 -220 0 0 68 0 67 160 160 160 160 -2 250 -3 250 -252 3 -253 2 0 185 0 184 158 3 157 3 3 326 2 327 -132 131 -133 131 -693 -3 -692 -2 0 112 0 113 278 2 277 3 3 430 2 430 555 -3 c551 -2 555 -2 555 18 0 19 6 20 225 20 l225 0 0 -405z m-3648 -1227 l3 -503 223 -3 222 -2 0 -135 0 -135 -357 -2 -358 -3 -3 -142 -3 -142 -72 -3 -72 -3 -3 -32 c-3 -27 -7 -33 -27 -33 l-25 0 -2 258 -3 257 -102 3 c-94 2 -103 4 -103 22 0 19 10 20 263 22 l262 3 3 538 2 537 75 0 75 0 2 -502z m1530 -225 l3 -78 162 -3 162 -2 121 60 120 60 195 0 195 0 0 -295 0 -294 -137 -3 -138 -3 -3 -157 -3 -158 -179 0 -180 0 -2 233 -3 232 -385 5 -385 5 -115 57 -115 56 90 4 90 3 3 178 2 177 250 0 249 0 3 -77z m-1002 -1598 l0 -325 -255 0 -255 0 0 325 0 325 255 0 255 0 0 -325z"/>
</g>
<g id="layer102" fill="#a5a389" stroke="none">
<path d="M2335 9947 c-3 -6 -4 -156 -3 -332 l3 -320 293 -3 292 -2 0 -445 0 -445 -240 0 -239 0 -3 158 -3 157 -239 3 c-167 2 -243 -1 -252 -9 -12 -9 -14 -110 -14 -580 l0 -568 -117 -3 -118 -3 0 -215 0 -215 383 -3 382 -2 0 -660 0 -660 -962 -2 -963 -3 0 -405 0 -405 673 -3 672 -2 0 -715 0 -715 -272 -2 -273 -3 0 -970 0 -970 290 0 290 0 3 213 2 212 25 0 c18 0 24 -6 27 -27 3 -27 5 -28 75 -31 l73 -3 2 -462 3 -462 177 -3 178 -2 2 -288 3 -287 178 -3 c172 -2 179 -2 184 18 5 20 12 20 583 20 572 0 578 0 583 -20 5 -20 12 -20 174 -18 l168 3 3 191 2 192 -219 238 -220 239 -1 338 0 337 510 0 510 0 0 -105 0 -105 -162 -2 -163 -3 0 -245 0 -245 632 -3 633 -2 2 -233 3 -232 290 0 290 0 3 232 2 233 528 2 527 3 3 952 2 953 378 2 377 3 3 847 2 848 588 2 587 3 0 225 c0 290 -12 461 -33 477 -14 12 -14 32 -4 195 11 159 10 184 -3 194 -11 8 -15 38 -17 120 l-3 109 -518 3 c-512 2 -519 2 -524 -18 -4 -17 -14 -20 -54 -20 l-49 0 0 69 0 70 38 3 37 3 0 715 0 715 -127 3 -128 3 -2 412 -3 412 -1015 0 -1015 0 -3 -122 -3 -123 -59 0 -60 0 0 265 0 264 158 3 157 3 0 370 0 370 -535 0 -535 0 -3 -72 -3 -73 -299 0 -300 0 -2 238 -3 237 -1108 3 c-885 2 -1109 0 -1112 -11z m995 -212 l0 -205 90 0 90 0 0 205 0 205 435 0 435 0 0 -165 0 -165 80 0 80 0 0 -75 0 -75 320 0 320 0 0 75 0 76 439 -1 c428 -2 439 -2 434 -21 -6 -23 -30 -25 -36 -4 -4 11 -4 10 -3 -2 1 -12 10 -18 24 -17 20 1 22 -4 22 -58 l0 -58 60 0 60 0 0 -110 c0 -103 1 -110 20 -110 19 0 20 -7 20 -165 l0 -165 -160 0 -160 0 0 -285 0 -285 315 0 315 0 0 -35 0 -35 50 0 50 0 0 160 0 160 630 0 630 0 0 -150 c0 -82 4 -150 9 -150 6 0 42 -252 41 -297 0 -7 -7 -13 -15 -13 -12 0 -15 -19 -15 -110 l0 -110 205 0 205 0 0 -700 0 -700 -40 0 -40 0 0 -90 0 -90 70 0 c63 0 70 2 70 20 0 20 7 20 505 20 l505 0 0 -115 c0 -100 2 -115 16 -115 14 0 16 -8 11 -47 -4 -27 -10 -114 -13 -195 -6 -130 -5 -148 8 -148 20 0 25 -69 34 -422 l6 -248 -591 0 -591 0 0 -850 0 -850 -380 0 -380 0 0 -880 0 -880 -50 0 -50 0 0 -75 0 -75 -85 0 -85 0 0 40 0 40 -185 0 -185 0 0 -40 0 -40 -80 0 -80 0 0 75 0 75 -130 0 -130 0 0 -310 0 -310 -275 0 -275 0 0 235 0 235 -635 0 -635 0 0 230 0 230 165 0 165 0 0 125 0 125 -530 0 -530 0 0 -230 0 -230 -480 0 -480 0 0 210 0 210 -275 0 -275 0 0 -345 0 -345 50 0 50 0 0 -115 0 -115 -175 0 -175 0 0 465 0 465 -75 0 -75 0 0 30 c0 29 -2 30 -45 30 l-45 0 0 -215 0 -215 -275 0 -275 0 0 955 0 955 275 0 275 0 0 735 0 735 -675 0 -675 0 0 390 0 390 965 0 965 0 0 680 0 680 -385 0 -385 0 0 200 0 200 120 0 120 0 2 578 3 577 233 3 232 2 0 -160 0 -160 260 0 260 0 0 -140 0 -140 -260 0 -260 0 0 -120 0 -120 -80 0 -80 0 0 -160 0 -160 220 0 220 0 0 -80 0 -80 80 0 80 0 0 -480 0 -480 260 0 260 0 0 280 0 280 240 0 240 0 0 335 0 335 -460 0 -460 0 0 65 0 65 600 0 600 0 0 -75 0 -75 -60 0 -60 0 0 -170 0 -170 190 0 c162 0 190 -2 190 -15 0 -13 63 -15 510 -15 l510 0 0 -123 0 -122 -180 -180 -180 -180 0 -397 0 -398 260 0 260 0 0 100 0 100 400 0 400 0 0 40 0 40 -80 0 -80 0 0 80 0 80 -80 0 -80 0 0 185 0 185 160 0 160 0 0 155 0 155 -140 0 -140 0 0 195 0 195 400 0 400 0 0 125 0 125 -420 0 -420 0 0 200 0 200 -80 0 c-79 0 -80 0 -80 -25 l0 -25 -360 0 -360 0 0 173 0 172 47 0 48 0 0 48 0 47 38 0 37 0 0 85 0 85 -85 0 -85 0 0 285 0 285 -320 0 -320 0 0 -745 0 -745 -195 0 -195 0 0 65 0 65 -202 0 -203 0 3 295 3 295 119 0 120 0 0 385 0 385 -185 0 -185 0 0 -85 0 -85 -340 0 -340 0 0 165 0 165 -175 0 -175 0 0 45 0 45 -45 0 c-45 0 -45 0 -45 35 l0 35 -75 0 -75 0 0 235 0 235 490 0 490 0 0 -205z m170 5 l0 -200 -80 0 -80 0 0 200 0 200 80 0 80 0 0 -200z m1040 120 l0 -80 -75 0 -75 0 0 80 0 80 75 0 75 0 0 -80z m0 -165 l0 -75 -75 0 -75 0 0 75 0 75 75 0 75 0 0 -75z m1680 -160 l0 -75 -75 0 -75 0 0 75 0 75 75 0 75 0 0 -75z m-3730 -150 l0 -75 -70 0 -70 0 0 75 0 75 70 0 70 0 0 -75z m3730 -40 c0 -87 -3 -105 -15 -105 -12 0 -15 18 -15 105 0 87 3 105 15 105 12 0 15 -18 15 -105z m-3640 10 c0 -33 -2 -35 -35 -35 -33 0 -35 2 -35 35 0 33 2 35 35 35 33 0 35 -2 35 -35z m1390 -590 l0 -365 -165 0 -165 0 0 365 0 365 165 0 165 0 0 -365z m1192 -222 l3 -588 375 0 375 0 3 23 c3 20 9 22 62 22 l60 0 2 -197 3 -198 418 -3 417 -2 0 -60 0 -60 -397 -2 -398 -3 0 -255 0 -255 138 -3 137 -3 0 -134 0 -134 -157 -3 -158 -3 -3 -282 -2 -283 160 0 c153 0 160 -1 160 -20 0 -19 -8 -20 -397 -22 l-398 -3 -3 -97 -3 -98 -239 0 -240 0 0 383 0 382 180 180 180 180 -2 135 -3 135 -330 5 -330 5 0 335 0 335 -107 3 -108 3 0 584 0 585 300 0 300 0 2 -587z m-1542 197 l0 -71 -72 3 -73 3 -3 54 c-5 79 -3 81 78 81 l70 0 0 -70z m3000 -280 l0 -120 -280 0 -280 0 0 120 0 120 280 0 280 0 0 -120z m1440 -290 l0 -410 -70 0 -70 0 0 100 c0 82 3 100 15 100 9 0 15 9 15 23 0 52 -35 307 -42 307 -4 0 -8 65 -8 145 l0 145 80 0 80 0 0 -410z m-2720 325 l0 -75 -80 0 -80 0 0 75 0 75 80 0 80 0 0 -75z m-75 -135 c0 -33 -2 -35 -35 -35 -29 0 -36 4 -38 23 -6 40 5 54 40 50 30 -3 33 -6 33 -38z m1355 -65 c0 -22 -4 -25 -40 -25 -36 0 -40 3 -40 25 0 23 4 25 40 25 36 0 40 -2 40 -25z m-3698 -437 l3 -223 458 -3 457 -2 0 -315 0 -315 -237 -2 -238 -3 -3 -277 -2 -278 -240 0 -240 0 -2 558 -3 557 -297 3 -298 2 0 140 0 139 78 3 77 3 3 118 3 117 239 0 240 0 2 -222z m1838 -238 l0 -320 -365 0 -365 0 0 160 0 160 60 0 c47 0 60 3 60 15 0 13 29 15 200 15 l200 0 0 145 0 145 105 0 105 0 0 -320z m-1352 238 l3 -68 -66 0 -65 0 0 70 0 71 63 -3 62 -3 3 -67z m-558 -398 l0 -70 -70 0 -70 0 0 70 0 70 70 0 70 0 0 -70z m4040 -40 l0 -40 -395 0 -395 0 0 40 0 40 395 0 395 0 0 -40z m-680 -1200 l0 -70 -70 0 -70 0 0 70 0 70 70 0 70 0 0 -70z m-3290 -4585 l0 -325 -255 0 -255 0 0 325 0 325 255 0 255 0 0 -325z m168 -262 l3 -73 -76 0 -75 0 0 75 0 76 73 -3 72 -3 3 -72z m3522 7 l0 -70 -75 0 -75 0 0 70 0 70 75 0 75 0 0 -70z m90 0 l0 -70 -40 0 -40 0 0 70 0 70 40 0 40 0 0 -70z m800 0 l0 -70 -40 0 -40 0 0 70 0 70 40 0 40 0 0 -70z m-270 -35 l0 -35 -175 0 -175 0 0 35 0 35 175 0 175 0 0 -35z m-3660 -330 l0 -65 -145 0 -145 0 0 65 0 65 145 0 145 0 0 -65z"/>
<path d="M7180 7300 l0 -320 -240 0 -240 0 0 -155 0 -155 165 0 165 0 0 -265 0 -265 -165 0 -165 0 0 -40 0 -40 53 -1 c28 0 46 -3 40 -6 -19 -7 -17 -120 1 -139 8 -8 27 -14 43 -14 25 0 28 -3 28 -32 0 -31 2 -33 38 -33 l37 0 0 -362 0 -363 -280 0 -280 0 0 -425 0 -425 240 0 240 0 0 -1020 0 -1020 -400 0 -400 0 0 160 0 160 235 0 235 0 0 740 0 740 -390 0 -390 0 0 120 0 120 155 0 155 0 0 580 0 580 -75 0 -75 0 0 -155 0 -155 -137 0 -138 0 0 57 c0 57 -1 58 -27 58 l-28 -1 0 93 0 93 -262 -2 -263 -3 258 -2 257 -3 0 -165 0 -165 -175 0 -175 0 0 85 0 85 -80 0 -80 0 0 -85 0 -85 -280 0 -280 0 0 55 c0 48 -2 55 -20 55 -20 0 -20 -7 -20 -295 l0 -295 -135 0 -135 0 0 80 0 80 -145 0 -145 0 0 435 0 435 280 0 280 0 0 -120 c0 -113 1 -120 20 -120 19 0 20 7 20 240 l0 240 120 0 120 0 0 45 0 45 -160 0 -160 0 0 275 0 275 160 0 160 0 0 80 0 80 -140 0 -140 0 0 80 0 80 -85 0 -85 0 0 -80 0 -80 -355 0 -355 0 0 -265 0 -265 -360 0 -360 0 0 -175 0 -175 60 0 60 0 0 -260 0 -260 -267 0 -268 0 -112 -93 -112 -92 0 -427 -1 -428 420 0 420 0 0 -260 0 -260 58 0 c31 0 87 3 125 7 l67 6 0 73 0 74 155 0 155 0 0 170 0 170 140 0 140 0 0 -335 c0 -328 0 -335 20 -335 19 0 20 7 20 210 l0 210 220 0 220 0 0 -45 0 -45 40 0 40 0 0 -60 0 -60 80 0 80 0 0 105 0 105 338 0 337 0 128 -127 127 -126 0 -314 0 -313 -155 0 -154 0 -4 118 c-1 64 -4 -28 -5 -205 l-2 -323 255 0 255 0 0 -238 0 -237 -160 -160 -160 -160 0 -82 0 -83 240 0 240 0 0 80 0 80 115 0 115 0 0 25 c0 22 -4 25 -35 25 l-35 0 0 150 0 150 160 0 160 0 0 -150 0 -150 -35 0 c-31 0 -35 -3 -35 -25 l0 -25 115 0 115 0 0 80 0 80 238 0 237 0 -3 720 -2 720 85 0 85 0 0 160 0 160 -85 0 -85 0 0 95 0 95 425 0 425 0 0 475 0 475 -115 0 -115 0 0 100 0 100 135 0 135 0 0 963 0 963 -38 37 -38 37 -197 0 -197 0 0 250 0 250 -125 0 -125 0 0 -320z m232 53 l3 -248 200 -3 199 -2 33 -32 33 -32 0 -948 0 -947 -132 -3 -133 -3 0 -115 0 -115 113 -3 112 -3 0 -454 0 -455 -422 -2 -423 -3 -3 -972 -2 -973 -233 -2 -232 -3 -3 -77 -3 -78 -97 1 c-60 1 -84 4 -62 8 l35 6 3 152 3 153 237 2 237 3 0 1035 0 1035 -237 3 -238 2 0 405 0 405 278 2 277 3 0 490 0 490 -117 3 c-109 2 -118 4 -118 22 0 18 9 20 163 22 l162 3 0 280 0 280 -162 3 -163 2 0 135 0 135 238 2 237 3 3 318 2 317 105 0 105 0 2 -247z m-2962 -618 l0 -75 -75 0 -75 0 0 75 0 75 75 0 75 0 0 -75z m270 -155 l0 -59 -157 -3 -158 -3 0 -290 0 -290 158 -3 157 -3 0 -24 c0 -24 0 -24 -117 -27 l-118 -3 -5 -120 -5 -120 -295 0 -295 0 0 -450 0 -450 143 -3 142 -3 0 -64 0 -65 -282 -2 -283 -3 -3 -357 -2 -358 -260 0 -260 0 -2 178 -3 177 -417 3 -418 2 0 410 0 410 105 87 105 88 273 5 272 5 0 275 0 275 -57 3 -58 3 0 154 0 155 358 2 357 3 3 263 2 262 560 0 560 0 0 -60z m2206 -534 c8 -9 14 -34 14 -61 0 -27 -6 -52 -14 -61 -9 -8 -34 -14 -61 -14 -27 0 -52 6 -61 14 -17 18 -19 102 -1 121 16 19 104 20 123 1z m-1 -181 c0 -22 -31 -33 -47 -17 -17 17 -1 44 24 40 15 -2 23 -10 23 -23z m-875 -605 l0 -150 -65 0 -65 0 0 150 0 150 65 0 65 0 0 -150z m-840 -105 l0 -75 -70 0 -70 0 0 75 0 75 70 0 70 0 0 -75z m416 54 c10 -17 -13 -36 -27 -22 -12 12 -4 33 11 33 5 0 12 -5 16 -11z m0 -60 c10 -17 -13 -36 -27 -22 -12 12 -4 33 11 33 5 0 12 -5 16 -11z m414 -464 l0 -404 -152 -3 -153 -3 0 -135 0 -135 388 -3 387 -2 0 -720 0 -720 -232 -2 -233 -3 0 -330 0 -330 35 -5 c19 -3 -17 -7 -80 -10 l-115 -5 -3 -77 -3 -78 -219 0 -220 0 0 68 0 67 160 160 160 160 -2 250 -3 250 -252 3 -253 2 0 185 0 184 158 3 157 3 3 326 2 327 -132 131 -133 131 -693 -3 -692 -2 0 112 0 113 278 2 277 3 3 430 2 430 555 -3 c551 -2 555 -2 555 18 0 19 6 20 225 20 l225 0 0 -405z m-1580 -235 l0 -130 -69 0 c-37 0 -96 -3 -130 -6 l-61 -7 0 -48 0 -49 -290 0 -290 0 0 185 0 185 420 0 420 0 0 -130z m-10 -185 l0 -45 -80 0 -80 0 0 45 0 45 80 0 80 0 0 -45z m-180 -5 c0 -38 -2 -40 -30 -40 -28 0 -30 2 -30 40 0 38 2 40 30 40 28 0 30 -2 30 -40z m340 -410 l0 -100 -70 0 -70 0 0 100 0 100 70 0 70 0 0 -100z m-160 55 c0 -32 -2 -35 -30 -35 -28 0 -30 3 -30 35 0 32 2 35 30 35 28 0 30 -3 30 -35z m-1240 -125 l0 -70 -70 0 -70 0 0 70 0 70 70 0 70 0 0 -70z m90 5 l0 -65 -40 0 -40 0 0 65 0 65 40 0 40 0 0 -65z m3870 -90 l0 -75 -80 0 -80 0 0 75 0 75 80 0 80 0 0 -75z m0 -155 l0 -70 -80 0 -80 0 0 70 0 70 80 0 80 0 0 -70z"/>
</g>
<g id="layer103" fill="#e5e4e5" stroke="none">
<path d="M2335 9947 c-3 -6 -4 -156 -3 -332 l3 -320 293 -3 292 -2 0 -445 0 -445 -240 0 -239 0 -3 158 -3 157 -239 3 c-167 2 -243 -1 -252 -9 -12 -9 -14 -110 -14 -580 l0 -568 -117 -3 -118 -3 0 -215 0 -215 383 -3 382 -2 0 -660 0 -660 -962 -2 -963 -3 0 -405 0 -405 673 -3 672 -2 0 -715 0 -715 -272 -2 -273 -3 0 -970 0 -970 290 0 290 0 3 213 2 212 25 0 c18 0 24 -6 27 -27 3 -27 5 -28 75 -31 l73 -3 2 -462 3 -462 177 -3 178 -2 2 -288 3 -287 178 -3 c172 -2 179 -2 184 18 5 20 12 20 583 20 572 0 578 0 583 -20 5 -20 12 -20 174 -18 l168 3 3 191 2 192 -219 238 -220 239 -1 338 0 337 510 0 510 0 0 -105 0 -105 -162 -2 -163 -3 0 -245 0 -245 632 -3 633 -2 2 -233 3 -232 290 0 290 0 3 232 2 233 528 2 527 3 3 952 2 953 378 2 377 3 3 847 2 848 588 2 587 3 0 225 c0 290 -12 461 -33 477 -14 12 -14 32 -4 195 11 159 10 184 -3 194 -11 8 -15 38 -17 120 l-3 109 -518 3 c-512 2 -519 2 -524 -18 -4 -17 -14 -20 -54 -20 l-49 0 0 69 0 70 38 3 37 3 0 715 0 715 -127 3 -128 3 -2 412 -3 412 -1015 0 -1015 0 -3 -122 -3 -123 -59 0 -60 0 0 265 0 264 158 3 157 3 0 370 0 370 -535 0 -535 0 -3 -72 -3 -73 -299 0 -300 0 -2 238 -3 237 -1108 3 c-885 2 -1109 0 -1112 -11z m995 -212 l0 -205 90 0 90 0 0 205 0 205 435 0 435 0 0 -165 0 -165 80 0 80 0 0 -75 0 -75 320 0 320 0 0 75 0 76 439 -1 c428 -2 439 -2 434 -21 -6 -23 -30 -25 -36 -4 -4 11 -4 10 -3 -2 1 -12 10 -18 24 -17 20 1 22 -4 22 -58 l0 -58 60 0 60 0 0 -110 c0 -103 1 -110 20 -110 19 0 20 -7 20 -165 l0 -165 -160 0 -160 0 0 -285 0 -285 315 0 315 0 0 -35 0 -35 50 0 50 0 0 160 0 160 630 0 630 0 0 -150 c0 -82 4 -150 9 -150 6 0 42 -252 41 -297 0 -7 -7 -13 -15 -13 -12 0 -15 -19 -15 -110 l0 -110 205 0 205 0 0 -700 0 -700 -40 0 -40 0 0 -90 0 -90 70 0 c63 0 70 2 70 20 0 20 7 20 505 20 l505 0 0 -115 c0 -100 2 -115 16 -115 14 0 16 -8 11 -47 -4 -27 -10 -114 -13 -195 -6 -130 -5 -148 8 -148 20 0 25 -69 34 -422 l6 -248 -591 0 -591 0 0 -850 0 -850 -380 0 -380 0 0 -880 0 -880 -50 0 -50 0 0 -75 0 -75 -85 0 -85 0 0 40 0 40 -185 0 -185 0 0 -40 0 -40 -80 0 -80 0 0 75 0 75 -130 0 -130 0 0 -310 0 -310 -275 0 -275 0 0 235 0 235 -635 0 -635 0 0 230 0 230 165 0 165 0 0 125 0 125 -530 0 -530 0 0 -352 1 -353 219 -238 220 -239 0 -179 0 -179 -155 0 c-148 0 -155 1 -155 20 0 20 -7 20 -600 20 -593 0 -600 0 -600 -20 0 -19 -7 -20 -165 -20 l-165 0 0 290 0 290 -180 0 -180 0 0 465 0 465 -75 0 -75 0 0 30 c0 29 -2 30 -45 30 l-45 0 0 -215 0 -215 -275 0 -275 0 0 955 0 955 275 0 275 0 0 735 0 735 -675 0 -675 0 0 390 0 390 965 0 965 0 0 680 0 680 -385 0 -385 0 0 200 0 200 120 0 120 0 2 578 3 577 233 3 232 2 0 -160 0 -160 260 0 260 0 0 465 0 465 -175 0 -175 0 0 45 0 45 -45 0 c-45 0 -45 0 -45 35 l0 35 -75 0 -75 0 0 235 0 235 490 0 490 0 0 -205z m170 5 l0 -200 -80 0 -80 0 0 200 0 200 80 0 80 0 0 -200z m1040 120 l0 -80 -75 0 -75 0 0 80 0 80 75 0 75 0 0 -80z m0 -165 l0 -75 -75 0 -75 0 0 75 0 75 75 0 75 0 0 -75z m1680 -160 l0 -75 -75 0 -75 0 0 75 0 75 75 0 75 0 0 -75z m-3730 -150 l0 -75 -70 0 -70 0 0 75 0 75 70 0 70 0 0 -75z m3730 -40 c0 -87 -3 -105 -15 -105 -12 0 -15 18 -15 105 0 87 3 105 15 105 12 0 15 -18 15 -105z m-3640 10 c0 -33 -2 -35 -35 -35 -33 0 -35 2 -35 35 0 33 2 35 35 35 33 0 35 -2 35 -35z m4040 -895 l0 -120 -280 0 -280 0 0 120 0 120 280 0 280 0 0 -120z m1440 -290 l0 -410 -70 0 -70 0 0 100 c0 82 3 100 15 100 9 0 15 9 15 23 0 52 -35 307 -42 307 -4 0 -8 65 -8 145 l0 145 80 0 80 0 0 -410z m-1440 125 c0 -22 -4 -25 -40 -25 -36 0 -40 3 -40 25 0 23 4 25 40 25 36 0 40 -2 40 -25z m-10 -6915 l0 -70 -75 0 -75 0 0 70 0 70 75 0 75 0 0 -70z m90 0 l0 -70 -40 0 -40 0 0 70 0 70 40 0 40 0 0 -70z m800 0 l0 -70 -40 0 -40 0 0 70 0 70 40 0 40 0 0 -70z m-270 -35 l0 -35 -175 0 -175 0 0 35 0 35 175 0 175 0 0 -35z"/>
<path d="M3620 8985 l0 -165 -80 0 -80 0 0 -80 0 -80 80 0 80 0 0 -140 0 -140 185 0 185 0 0 385 0 385 -185 0 -185 0 0 -165z m350 -220 l0 -365 -165 0 -165 0 0 365 0 365 165 0 165 0 0 -365z m-350 -25 l0 -70 -75 0 -75 0 0 70 0 70 75 0 75 0 0 -70z"/>
<path d="M4540 8405 l0 -745 -195 0 -195 0 0 65 0 65 -365 0 -365 0 0 75 0 75 -75 0 -75 0 0 -75 0 -75 -165 0 -165 0 0 155 0 155 -260 0 -260 0 0 -120 0 -120 -80 0 -80 0 0 -160 0 -160 220 0 220 0 0 -80 0 -80 80 0 80 0 0 -480 0 -480 260 0 260 0 0 280 0 280 240 0 240 0 0 335 0 335 -460 0 -460 0 0 65 0 65 600 0 600 0 0 -75 0 -75 -60 0 -60 0 0 -170 0 -170 190 0 c162 0 190 -2 190 -15 0 -13 63 -15 510 -15 l510 0 0 -123 0 -122 -180 -180 -180 -180 0 -397 0 -398 260 0 260 0 0 100 0 100 400 0 400 0 0 40 0 40 -80 0 -80 0 0 80 0 80 -80 0 -80 0 0 185 0 185 160 0 160 0 0 155 0 155 -140 0 -140 0 0 195 0 195 400 0 400 0 0 125 0 125 -420 0 -420 0 0 200 0 200 -80 0 c-79 0 -80 0 -80 -25 l0 -25 -360 0 -360 0 0 173 0 172 47 0 48 0 0 48 0 47 38 0 37 0 0 85 0 85 -85 0 -85 0 0 285 0 285 -320 0 -320 0 0 -745z m622 138 l3 -588 375 0 375 0 3 23 c3 20 9 22 62 22 l60 0 2 -197 3 -198 418 -3 417 -2 0 -60 0 -60 -397 -2 -398 -3 0 -255 0 -255 138 -3 137 -3 0 -134 0 -134 -157 -3 -158 -3 -3 -282 -2 -283 160 0 c153 0 160 -1 160 -20 0 -19 -8 -20 -397 -22 l-398 -3 -3 -97 -3 -98 -239 0 -240 0 0 383 0 382 180 180 180 180 -2 135 -3 135 -330 5 -330 5 0 335 0 335 -107 3 -108 3 0 584 0 585 300 0 300 0 2 -587z m178 -48 l0 -75 -80 0 -80 0 0 75 0 75 80 0 80 0 0 -75z m-75 -135 c0 -33 -2 -35 -35 -35 -29 0 -36 4 -38 23 -6 40 5 54 40 50 30 -3 33 -6 33 -38z m-2343 -502 l3 -223 458 -3 457 -2 0 -315 0 -315 -237 -2 -238 -3 -3 -277 -2 -278 -240 0 -240 0 -2 558 -3 557 -297 3 -298 2 0 140 0 139 78 3 77 3 3 118 3 117 239 0 240 0 2 -222z m1838 -238 l0 -320 -365 0 -365 0 0 160 0 160 60 0 c47 0 60 3 60 15 0 13 29 15 200 15 l200 0 0 145 0 145 105 0 105 0 0 -320z m-1350 240 l0 -70 -65 0 -65 0 0 70 0 70 65 0 65 0 0 -70z m-560 -400 l0 -70 -70 0 -70 0 0 70 0 70 70 0 70 0 0 -70z m4040 -40 l0 -40 -395 0 -395 0 0 40 0 40 395 0 395 0 0 -40z m-680 -1200 l0 -70 -70 0 -70 0 0 70 0 70 70 0 70 0 0 -70z"/>
<path d="M7180 7300 l0 -320 -240 0 -240 0 0 -155 0 -155 165 0 165 0 0 -265 0 -265 -165 0 -165 0 0 -40 0 -40 53 -1 c28 0 46 -3 40 -6 -19 -7 -17 -120 1 -139 8 -8 27 -14 43 -14 25 0 28 -3 28 -32 0 -31 2 -33 38 -33 l37 0 0 -362 0 -363 -280 0 -280 0 0 -425 0 -425 240 0 240 0 0 -1020 0 -1020 -400 0 -400 0 0 160 0 160 235 0 235 0 0 740 0 740 -390 0 -390 0 0 120 0 120 155 0 155 0 0 580 0 580 -75 0 -75 0 0 -155 0 -156 -164 2 -163 1 0 47 c0 25 -1 92 -2 149 l-1 102 -262 -2 -263 -3 258 -2 257 -3 0 -165 0 -165 -175 0 -175 0 0 85 0 85 -80 0 -80 0 0 -85 0 -85 -280 0 -280 0 0 55 c0 48 -2 55 -20 55 -20 0 -20 -7 -20 -295 l0 -295 -135 0 -135 0 0 80 0 80 -145 0 -145 0 0 435 0 435 280 0 280 0 0 -120 c0 -113 1 -120 20 -120 19 0 20 7 20 240 l0 240 120 0 120 0 0 45 0 45 -160 0 -160 0 0 275 0 275 160 0 160 0 0 80 0 80 -140 0 -140 0 0 80 0 80 -85 0 -85 0 0 -80 0 -80 -355 0 -355 0 0 -265 0 -265 -360 0 -360 0 0 -175 0 -175 60 0 60 0 0 -260 0 -260 -267 0 -268 0 -112 -93 -112 -92 0 -427 -1 -428 420 0 420 0 0 -260 0 -260 58 0 c31 0 87 3 125 7 l67 6 0 73 0 74 155 0 155 0 0 170 0 170 140 0 140 0 0 -335 c0 -328 0 -335 20 -335 19 0 20 7 20 210 l0 210 220 0 220 0 0 -45 0 -45 40 0 40 0 0 -60 0 -60 80 0 80 0 0 105 0 105 338 0 337 0 128 -127 127 -126 0 -314 0 -313 -155 0 -154 0 -4 118 c-1 64 -4 -28 -5 -205 l-2 -323 255 0 255 0 0 -238 0 -237 -160 -160 -160 -160 0 -82 0 -83 240 0 240 0 0 80 0 80 115 0 115 0 0 25 c0 22 -4 25 -35 25 l-35 0 0 150 0 150 160 0 160 0 0 -150 0 -150 -35 0 c-31 0 -35 -3 -35 -25 l0 -25 115 0 115 0 0 80 0 80 238 0 237 0 -3 720 -2 720 85 0 85 0 0 160 0 160 -85 0 -85 0 0 95 0 95 425 0 425 0 0 475 0 475 -115 0 -115 0 0 100 0 100 135 0 135 0 0 963 0 963 -38 37 -38 37 -197 0 -197 0 0 250 0 250 -125 0 -125 0 0 -320z m232 53 l3 -248 200 -3 199 -2 33 -32 33 -32 0 -948 0 -947 -132 -3 -133 -3 0 -115 0 -115 113 -3 112 -3 0 -454 0 -455 -422 -2 -423 -3 -3 -972 -2 -973 -233 -2 -232 -3 -3 -77 -3 -78 -97 1 c-60 1 -84 4 -62 8 l35 6 3 152 3 153 237 2 237 3 0 1035 0 1035 -237 3 -238 2 0 405 0 405 278 2 277 3 0 490 0 490 -117 3 c-109 2 -118 4 -118 22 0 18 9 20 163 22 l162 3 0 280 0 280 -162 3 -163 2 0 135 0 135 238 2 237 3 3 318 2 317 105 0 105 0 2 -247z m-2962 -618 l0 -75 -75 0 -75 0 0 75 0 75 75 0 75 0 0 -75z m270 -155 l0 -59 -157 -3 -158 -3 0 -290 0 -290 158 -3 157 -3 0 -24 c0 -24 0 -24 -117 -27 l-118 -3 -5 -120 -5 -120 -295 0 -295 0 0 -450 0 -450 143 -3 142 -3 0 -64 0 -65 -282 -2 -283 -3 -3 -357 -2 -358 -260 0 -260 0 -2 178 -3 177 -417 3 -418 2 0 410 0 410 105 87 105 88 273 5 272 5 0 275 0 275 -57 3 -58 3 0 154 0 155 358 2 357 3 3 263 2 262 560 0 560 0 0 -60z m2206 -534 c8 -9 14 -34 14 -61 0 -27 -6 -52 -14 -61 -9 -8 -34 -14 -61 -14 -27 0 -52 6 -61 14 -17 18 -19 102 -1 121 16 19 104 20 123 1z m-1 -181 c0 -22 -31 -33 -47 -17 -17 17 -1 44 24 40 15 -2 23 -10 23 -23z m-875 -605 l0 -150 -65 0 -65 0 0 150 0 150 65 0 65 0 0 -150z m-840 -105 l0 -75 -70 0 -70 0 0 75 0 75 70 0 70 0 0 -75z m830 -470 l0 -404 -152 -3 -153 -3 0 -135 0 -135 388 -3 387 -2 0 -720 0 -720 -232 -2 -233 -3 0 -330 0 -330 35 -5 c19 -3 -17 -7 -80 -10 l-115 -5 -3 -77 -3 -78 -219 0 -220 0 0 68 0 67 160 160 160 160 -2 250 -3 250 -252 3 -253 2 0 185 0 184 158 3 157 3 3 326 2 327 -132 131 -133 131 -693 -3 -692 -2 0 112 0 113 278 2 277 3 3 430 2 430 555 -3 c551 -2 555 -2 555 18 0 19 6 20 225 20 l225 0 0 -405z m-1580 -235 l0 -130 -69 0 c-37 0 -96 -3 -130 -6 l-61 -7 0 -48 0 -49 -290 0 -290 0 0 185 0 185 420 0 420 0 0 -130z m-10 -185 l0 -45 -80 0 -80 0 0 45 0 45 80 0 80 0 0 -45z m-180 -5 c0 -38 -2 -40 -30 -40 -28 0 -30 2 -30 40 0 38 2 40 30 40 28 0 30 -2 30 -40z m340 -410 l0 -100 -70 0 -70 0 0 100 0 100 70 0 70 0 0 -100z m-160 55 c0 -32 -2 -35 -30 -35 -28 0 -30 3 -30 35 0 32 2 35 30 35 28 0 30 -3 30 -35z m-1240 -125 l0 -70 -70 0 -70 0 0 70 0 70 70 0 70 0 0 -70z m90 5 l0 -65 -40 0 -40 0 0 65 0 65 40 0 40 0 0 -65z m3870 -90 l0 -75 -80 0 -80 0 0 75 0 75 80 0 80 0 0 -75z m0 -155 l0 -70 -80 0 -80 0 0 70 0 70 80 0 80 0 0 -70z"/>
<path d="M2220 3440 l0 -540 -265 0 -265 0 0 -40 0 -40 105 0 105 0 0 -260 0 -260 45 0 c45 0 45 0 45 35 l0 35 75 0 75 0 0 145 0 145 645 0 645 0 0 -80 0 -80 80 0 80 0 0 80 0 80 315 0 315 0 0 -160 0 -160 200 0 c193 0 200 1 200 20 0 19 7 20 120 20 l120 0 0 140 c0 133 1 140 20 140 20 0 20 7 20 315 l0 315 -210 0 -210 0 -120 -60 -120 -60 -150 0 -150 0 0 80 0 80 -270 0 -270 0 0 -180 0 -180 -90 0 c-83 0 -90 -1 -90 -20 0 -16 27 -33 127 -80 l126 -60 374 0 373 0 0 -70 0 -70 -680 0 -680 0 0 135 0 135 60 0 c47 0 60 3 60 15 0 13 -38 15 -285 15 l-285 0 2 505 3 505 -97 0 -98 0 0 -540z m172 18 l3 -503 223 -3 222 -2 0 -135 0 -135 -357 -2 -358 -3 -3 -142 -3 -142 -72 -3 -72 -3 -3 -32 c-3 -27 -7 -33 -27 -33 l-25 0 -2 258 -3 257 -102 3 c-94 2 -103 4 -103 22 0 19 10 20 263 22 l262 3 3 538 2 537 75 0 75 0 2 -502z m1530 -225 l3 -78 162 -3 162 -2 121 60 120 60 195 0 195 0 0 -295 0 -294 -137 -3 -138 -3 -3 -157 -3 -158 -179 0 -180 0 -2 233 -3 232 -385 5 -385 5 -115 57 -115 56 90 4 90 3 3 178 2 177 250 0 249 0 3 -77z m-342 -648 l0 -75 -70 0 -70 0 0 75 0 75 70 0 70 0 0 -75z m1270 -60 l0 -135 -115 0 -115 0 0 135 0 135 115 0 115 0 0 -135z"/>
<path d="M2390 1635 l0 -345 355 0 355 0 0 85 0 85 -80 0 -80 0 0 260 0 260 -275 0 -275 0 0 -345z m530 0 l0 -325 -255 0 -255 0 0 325 0 325 255 0 255 0 0 -325z m170 -260 l0 -75 -75 0 -75 0 0 75 0 75 75 0 75 0 0 -75z"/>
<path d="M3270 1015 l0 -75 155 0 155 0 0 75 0 75 -155 0 -155 0 0 -75z m300 0 l0 -65 -145 0 -145 0 0 65 0 65 145 0 145 0 0 -65z"/>
</g>


</svg>