<!DOCTYPE svg PUBLIC "-//W3C//DTD SVG 20010904//EN" "http://www.w3.org/TR/2001/REC-SVG-20010904/DTD/svg10.dtd">
<svg version="1.0" xmlns="http://www.w3.org/2000/svg" width="1024px" height="1024px" viewBox="0 0 10240 10240" preserveAspectRatio="xMidYMid meet">
<g id="layer101" fill="#7e7f7e" stroke="none">
<path d="M2250 9075 l0 -295 70 0 c63 0 70 -2 70 -20 0 -19 -7 -20 -140 -20 l-140 0 0 -930 0 -930 -25 0 c-24 0 -25 2 -25 65 l0 65 -295 0 -295 0 0 -925 0 -925 -530 0 -530 0 0 -650 0 -650 525 0 525 0 0 -30 0 -30 -65 0 -65 0 0 -225 0 -225 60 0 60 0 0 -530 0 -530 440 0 440 0 0 -750 0 -750 1045 0 1045 0 0 265 0 265 165 0 165 0 0 -425 0 -425 225 0 225 0 0 240 0 240 -70 0 -70 0 0 100 0 100 70 0 70 0 0 710 0 710 30 0 30 0 0 -120 0 -120 970 0 970 0 0 445 0 445 205 0 205 0 0 -75 0 -75 375 0 375 0 0 295 0 295 100 0 100 0 0 733 c0 402 3 769 7 815 l6 82 503 0 504 0 0 190 0 190 28 0 c22 0 58 24 148 101 65 56 127 107 137 113 15 10 17 32 17 218 l0 208 -545 0 -545 0 0 320 0 320 -1200 0 -1200 0 0 530 0 530 -720 0 -720 0 0 -65 c0 -51 -3 -65 -15 -65 -10 0 -15 11 -15 35 l0 35 -565 0 -565 0 0 -535 0 -535 -25 0 -25 0 0 930 0 930 -300 0 c-293 0 -300 0 -300 20 0 18 7 20 70 20 l70 0 0 295 0 295 -530 0 -530 0 0 -295z m2730 -1860 l0 -365 100 0 100 0 0 -200 0 -200 -100 0 -100 0 0 -385 0 -385 135 0 c83 0 135 -4 135 -10 0 -7 -245 -10 -715 -10 l-715 0 0 -175 0 -175 -322 2 c-178 1 -291 4 -251 5 l72 4 121 126 120 127 0 263 0 263 -245 0 -245 0 0 25 0 25 195 0 195 0 0 110 0 110 155 0 155 0 0 100 0 100 25 0 25 0 0 -140 0 -140 370 0 370 0 0 400 0 400 -110 0 -110 0 0 205 0 205 305 0 305 0 0 40 c0 29 4 40 15 40 13 0 15 -47 15 -365z m-2870 -680 l0 -35 205 0 205 0 0 -175 0 -175 155 0 155 0 0 -25 c0 -24 -2 -25 -75 -25 l-75 0 0 -390 0 -390 83 -2 c61 -1 68 -3 30 -5 l-53 -4 0 -75 0 -74 -335 0 -335 0 -3 -282 c-1 -156 -3 22 -5 395 l-2 677 -110 0 -110 0 0 135 0 135 110 0 110 0 0 175 0 175 25 0 c22 0 25 -4 25 -35z m5290 -525 l0 -490 -35 0 -35 0 0 -400 0 -400 140 0 140 0 0 -565 0 -565 -275 0 -275 0 0 575 0 575 -542 0 -542 0 -68 67 -68 67 0 393 0 393 -175 0 c-110 0 -175 4 -175 10 0 6 55 10 145 10 l145 0 0 280 0 280 -145 0 -145 0 0 130 0 130 955 0 955 0 0 -490z m-4578 -1227 l68 -67 0 -143 0 -143 265 0 265 0 0 180 0 180 200 0 200 0 0 -145 0 -145 325 0 325 0 0 -490 0 -490 -60 0 -60 0 0 75 0 75 -300 0 -300 0 0 -320 0 -320 -25 0 -25 0 0 105 0 105 -285 0 -285 0 0 280 0 280 -640 0 -640 0 0 30 0 30 105 0 105 0 2 213 c1 116 4 179 5 140 l4 -73 214 0 215 0 0 292 0 292 62 63 62 63 65 0 65 0 68 -67z m3718 -1203 l0 -490 -640 0 -640 0 0 -120 0 -120 -30 0 c-29 0 -30 1 -30 50 l0 50 -330 0 -330 0 0 -195 0 -195 105 0 105 0 0 -430 0 -430 -165 0 -165 0 0 335 0 335 -110 0 -110 0 0 35 0 35 75 0 75 0 0 425 0 425 60 0 60 0 0 -70 0 -70 295 0 295 0 0 295 0 295 -110 0 -110 0 0 165 0 165 850 0 850 0 0 -490z m-3780 -405 c0 -158 -2 -185 -15 -185 -12 0 -15 16 -15 85 l0 85 -200 0 -200 0 0 -250 0 -250 -245 0 -245 0 0 350 0 350 460 0 460 0 0 -185z m0 -405 l0 -50 111 0 111 0 106 -75 107 -75 253 0 252 0 0 105 0 105 25 0 25 0 0 -170 0 -170 75 0 75 0 0 -35 0 -35 -110 0 -110 0 0 -65 0 -65 -465 0 -465 0 0 -250 0 -250 -25 0 -25 0 0 460 c0 402 2 460 15 460 12 0 15 16 15 80 0 64 3 80 15 80 11 0 15 -12 15 -50z"/>
</g>
<g id="layer102" fill="#a5a38a" stroke="none">
<path d="M2250 9075 l0 -295 70 0 c63 0 70 -2 70 -20 0 -19 -7 -20 -140 -20 l-140 0 0 -930 0 -930 -25 0 c-24 0 -25 2 -25 65 l0 65 -295 0 -295 0 0 -925 0 -925 -530 0 -530 0 0 -650 0 -650 525 0 525 0 0 -30 0 -30 -65 0 -65 0 0 -225 0 -225 60 0 60 0 0 -530 0 -530 440 0 440 0 0 -750 0 -750 1045 0 1045 0 0 265 0 265 165 0 165 0 0 -425 0 -425 225 0 225 0 0 240 0 240 -70 0 -70 0 0 100 0 100 70 0 70 0 0 710 0 710 30 0 30 0 0 -120 0 -120 970 0 970 0 0 445 0 445 205 0 205 0 0 -75 0 -75 375 0 375 0 0 295 0 295 100 0 100 0 0 733 c0 402 3 769 7 815 l6 82 503 0 504 0 0 190 0 190 28 0 c22 0 58 24 148 101 65 56 127 107 137 113 15 10 17 32 17 218 l0 208 -545 0 -545 0 0 320 0 320 -1200 0 -1200 0 0 530 0 530 -720 0 -720 0 0 -65 c0 -51 -3 -65 -15 -65 -10 0 -15 11 -15 35 l0 35 -565 0 -565 0 0 -535 0 -535 -25 0 -25 0 0 930 0 930 -300 0 c-293 0 -300 0 -300 20 0 18 7 20 70 20 l70 0 0 295 0 295 -530 0 -530 0 0 -295z m1050 0 l0 -285 -70 0 -70 0 0 -30 0 -30 -75 0 -75 0 0 30 0 30 -235 0 -235 0 0 -30 0 -30 -70 0 -70 0 0 30 0 30 -70 0 -70 0 0 285 0 285 520 0 520 0 0 -285z m-300 -315 c0 -19 -7 -20 -225 -20 -218 0 -225 1 -225 20 0 19 7 20 225 20 218 0 225 -1 225 -20z m470 -505 c0 -310 -3 -475 -10 -475 -7 0 -10 165 -10 475 0 310 3 475 10 475 7 0 10 -165 10 -475z m290 -455 l0 -930 35 0 35 0 0 535 0 535 555 0 555 0 0 -35 c0 -31 3 -35 25 -35 24 0 25 2 25 65 l0 65 275 0 275 0 0 -140 0 -140 150 0 150 0 0 140 0 140 285 0 285 0 0 -530 0 -530 1200 0 1200 0 0 -186 0 -186 -44 36 c-36 29 -53 36 -87 36 -36 0 -49 -6 -81 -37 -33 -32 -38 -43 -38 -82 0 -40 5 -51 42 -88 36 -37 48 -43 83 -43 34 0 47 6 75 35 19 19 38 35 42 35 4 0 8 -36 8 -80 l0 -80 545 0 545 0 0 -197 0 -198 -131 -110 c-102 -86 -138 -111 -165 -113 l-34 -3 0 -190 0 -189 -505 0 -505 0 0 -40 c0 -22 -3 -40 -7 -40 -5 0 -7 -290 -5 -645 l3 -645 -101 0 -100 0 0 -425 0 -425 -365 0 -365 0 0 75 0 75 -385 0 c-378 0 -385 0 -385 -20 0 -19 7 -20 170 -20 l170 0 0 -425 0 -425 -960 0 -960 0 0 120 0 120 -40 0 -40 0 0 -710 0 -710 -70 0 -70 0 0 -110 0 -110 70 0 70 0 0 -230 0 -230 -215 0 -215 0 0 425 0 425 -175 0 -175 0 0 -120 0 -120 -145 0 -145 0 0 -145 0 -145 -245 0 -245 0 0 715 0 715 30 0 30 0 0 65 0 65 110 0 110 0 0 45 0 45 -75 0 -75 0 0 170 0 170 -35 0 c-32 0 -35 -2 -35 -30 l0 -30 -217 -2 -218 -3 218 -2 217 -3 0 -70 0 -70 -246 0 -246 0 -104 73 -104 72 0 53 0 52 -40 0 -40 0 0 110 0 110 -70 0 -70 0 0 123 c0 68 -3 172 -7 230 l-6 107 -74 0 -73 0 0 -70 0 -70 -390 0 -390 0 0 -360 0 -360 270 0 c173 0 270 4 270 10 0 6 -7 10 -15 10 -13 0 -15 33 -15 240 l0 240 190 0 190 0 0 -85 c0 -78 2 -85 20 -85 18 0 20 -7 20 -75 0 -68 -2 -75 -20 -75 -18 0 -20 -7 -20 -80 0 -79 0 -80 -25 -80 -14 0 -25 -4 -25 -10 0 -5 5 -10 10 -10 7 0 10 -160 10 -460 l0 -460 30 0 30 0 0 -465 0 -465 -30 0 -30 0 0 75 0 75 -70 0 -70 0 0 -75 0 -75 -105 0 -105 0 0 750 0 750 -440 0 -440 0 0 530 0 530 -60 0 -60 0 0 215 0 215 65 0 65 0 0 40 0 40 -525 0 -525 0 0 640 0 640 530 0 530 0 0 925 0 925 285 0 285 0 0 -65 0 -65 35 0 35 0 0 320 0 320 145 0 145 0 0 -175 c0 -149 2 -175 15 -175 13 0 15 24 15 160 l0 160 500 0 500 0 0 -160 c0 -153 1 -160 20 -160 20 0 20 7 20 785 l0 785 140 0 140 0 0 -930z m-772 380 l52 0 0 -60 0 -60 -63 0 c-35 0 -68 -5 -73 -10 -7 -7 -18 -2 -34 15 -16 17 -34 25 -57 25 l-33 0 0 60 0 59 58 3 c43 2 62 -1 78 -14 14 -12 37 -18 72 -18z m-738 -240 l0 -60 -60 0 -60 0 0 60 0 60 60 0 60 0 0 -60z m3580 -80 l0 -130 -140 0 -140 0 0 130 0 130 140 0 140 0 0 -130z m-2360 -390 c0 -193 -4 -300 -10 -300 -6 0 -10 60 -10 160 l0 160 -510 0 -510 0 -3 -162 -3 -163 -2 168 -2 167 515 0 515 0 0 135 c0 83 4 135 10 135 6 0 10 -107 10 -300z m-40 110 l0 -60 -55 0 -55 0 0 60 0 60 55 0 55 0 0 -60z m5332 -987 c31 -31 38 -44 38 -77 0 -31 -7 -47 -32 -73 -28 -29 -38 -33 -83 -33 -43 0 -56 4 -78 28 -22 23 -27 38 -27 77 0 42 5 54 32 82 26 27 40 33 72 33 33 0 47 -7 78 -37z m-222 -2793 l0 -120 -90 0 -90 0 0 120 0 120 90 0 90 0 0 -120z m-5790 -360 l0 -60 -65 0 -65 0 0 60 0 60 65 0 65 0 0 -60z m10 -265 c0 -158 -2 -185 -15 -185 -12 0 -15 16 -15 85 l0 85 -200 0 -200 0 0 -250 0 -250 -245 0 -245 0 0 350 0 350 460 0 460 0 0 -185z m4430 35 c0 -6 -62 -10 -165 -10 -103 0 -165 4 -165 10 0 6 62 10 165 10 103 0 165 -4 165 -10z m-4290 -325 l0 -155 -65 0 -65 0 0 155 0 155 65 0 65 0 0 -155z m-140 -115 l0 -50 111 0 111 0 106 -75 107 -75 253 0 252 0 0 105 0 105 25 0 25 0 0 -170 0 -170 75 0 75 0 0 -35 0 -35 -110 0 -110 0 0 -65 0 -65 -465 0 -465 0 0 -250 0 -250 -25 0 -25 0 0 460 c0 402 2 460 15 460 12 0 15 16 15 80 0 64 3 80 15 80 11 0 15 -12 15 -50z m220 5 c0 -45 0 -45 -35 -45 -35 0 -35 0 -35 45 0 45 0 45 35 45 35 0 35 0 35 -45z m490 -830 l0 -65 -205 0 -205 0 0 65 0 65 205 0 205 0 0 -65z m-220 -575 l0 -60 -60 0 -60 0 0 60 0 60 60 0 60 0 0 -60z m40 -140 l0 -60 -60 0 -60 0 0 60 0 60 60 0 60 0 0 -60z m1110 -220 l0 -70 -135 0 -135 0 0 70 0 70 135 0 135 0 0 -70z m-1720 -135 l0 -65 -60 0 -60 0 0 65 0 65 60 0 60 0 0 -65z m220 0 l0 -65 -65 0 -65 0 0 65 0 65 65 0 65 0 0 -65z m720 0 l0 -65 -70 0 -70 0 0 65 0 65 70 0 70 0 0 -65z m780 -5 l0 -60 -135 0 -135 0 0 60 0 60 135 0 135 0 0 -60z"/>
<path d="M2755 7281 c-50 -30 -68 -56 -56 -79 24 -45 66 -53 278 -50 l198 3 3 64 c2 45 -1 67 -10 72 -7 5 -96 9 -198 9 -163 0 -189 -2 -215 -19z m415 -55 c0 -40 -4 -55 -16 -60 -9 -3 -93 -6 -188 -6 -158 0 -175 2 -216 23 -25 12 -45 29 -45 37 0 8 15 25 34 37 33 22 42 23 232 23 l199 0 0 -54z"/>
<path d="M7894 5896 c-28 -28 -34 -42 -34 -76 0 -34 6 -48 34 -76 28 -28 42 -34 76 -34 34 0 48 6 76 34 28 28 34 42 34 76 0 34 -6 48 -34 76 -28 28 -42 34 -76 34 -34 0 -48 -6 -76 -34z m121 9 c69 -33 70 -136 1 -169 -41 -19 -57 -20 -91 -4 -64 29 -68 139 -7 173 35 19 57 18 97 0z"/>
<path d="M5267 5132 c-36 -40 -9 -102 45 -102 51 0 78 69 40 103 -24 22 -65 21 -85 -1z m69 0 c29 -18 27 -75 -3 -86 -21 -9 -61 3 -67 21 -17 44 32 90 70 65z"/>
<path d="M1257 4562 c-36 -40 -9 -102 45 -102 51 0 78 69 40 103 -24 22 -65 21 -85 -1z m73 -12 c11 -11 20 -24 20 -30 0 -5 -9 -19 -20 -30 -11 -11 -24 -20 -30 -20 -5 0 -19 9 -30 20 -11 11 -20 25 -20 30 0 6 9 19 20 30 11 11 25 20 30 20 6 0 19 -9 30 -20z"/>
</g>
<g id="layer103" fill="#fefefe" stroke="none">
<path d="M2250 9075 l0 -295 70 0 c63 0 70 -2 70 -20 0 -19 -7 -20 -140 -20 l-140 0 0 -930 0 -930 -25 0 c-24 0 -25 2 -25 65 l0 65 -295 0 -295 0 0 -925 0 -925 -530 0 -530 0 0 -650 0 -650 525 0 525 0 0 -30 0 -30 -65 0 -65 0 0 -225 0 -225 60 0 60 0 0 -530 0 -530 440 0 440 0 0 -750 0 -750 1045 0 1045 0 0 265 0 265 165 0 165 0 0 -425 0 -425 225 0 225 0 0 240 0 240 -70 0 -70 0 0 100 0 100 70 0 70 0 0 710 0 710 30 0 30 0 0 -120 0 -120 970 0 970 0 0 445 0 445 205 0 205 0 0 -75 0 -75 375 0 375 0 0 295 0 295 100 0 100 0 0 733 c0 402 3 769 7 815 l6 82 503 0 504 0 0 190 0 190 28 0 c22 0 58 24 148 101 65 56 127 107 137 113 15 10 17 32 17 218 l0 208 -545 0 -545 0 0 320 0 320 -1200 0 -1200 0 0 530 0 530 -720 0 -720 0 0 -65 c0 -51 -3 -65 -15 -65 -10 0 -15 11 -15 35 l0 35 -565 0 -565 0 0 -535 0 -535 -25 0 -25 0 0 930 0 930 -300 0 c-293 0 -300 0 -300 20 0 18 7 20 70 20 l70 0 0 295 0 295 -530 0 -530 0 0 -295z m1050 0 l0 -285 -70 0 -70 0 0 -30 0 -30 140 0 140 0 0 -540 0 -540 -65 0 -65 0 0 -70 0 -70 -450 0 -450 0 0 -175 c0 -149 2 -175 15 -175 13 0 15 24 15 160 l0 160 500 0 500 0 0 -160 c0 -153 1 -160 20 -160 20 0 20 7 20 785 l0 785 140 0 140 0 0 -930 0 -930 35 0 35 0 0 535 0 535 555 0 555 0 0 -35 c0 -31 3 -35 25 -35 24 0 25 2 25 65 l0 65 275 0 275 0 0 -140 0 -140 150 0 150 0 0 140 0 140 285 0 285 0 0 -530 0 -530 1201 0 1201 0 -2 -232 c-2 -128 -2 -272 -2 -320 l2 -88 545 0 545 0 0 -197 0 -198 -131 -110 c-102 -86 -138 -111 -165 -113 l-34 -3 0 -190 0 -189 -505 0 -505 0 0 -40 c0 -22 -3 -40 -7 -40 -5 0 -7 -290 -5 -645 l3 -645 -101 0 -100 0 0 -425 0 -425 -365 0 -365 0 0 75 0 75 -385 0 c-378 0 -385 0 -385 -20 0 -19 7 -20 170 -20 l170 0 0 -425 0 -425 -960 0 -960 0 0 120 0 120 -40 0 -40 0 0 -710 0 -710 -70 0 -70 0 0 -110 0 -110 70 0 70 0 0 -230 0 -230 -215 0 -215 0 0 425 0 425 -175 0 -175 0 0 -120 0 -120 -145 0 -145 0 0 -145 0 -145 -245 0 -245 0 0 75 0 75 -80 0 -80 0 0 -75 0 -75 -280 0 -280 0 0 75 0 75 -75 0 -75 0 0 640 0 640 465 0 465 0 0 65 0 65 110 0 110 0 0 45 0 45 -75 0 -75 0 0 170 0 170 -35 0 c-32 0 -35 -2 -35 -30 l0 -30 -217 -2 -218 -3 218 -2 217 -3 0 -70 0 -70 -246 0 -246 0 -104 73 -104 72 0 53 0 52 -40 0 -40 0 0 110 0 110 -70 0 -70 0 0 123 c0 68 -3 172 -7 230 l-6 107 -74 0 -73 0 0 -70 0 -70 -390 0 -390 0 0 -360 0 -360 270 0 c173 0 270 4 270 10 0 6 -7 10 -15 10 -13 0 -15 33 -15 240 l0 240 190 0 190 0 0 -85 c0 -78 2 -85 20 -85 18 0 20 -7 20 -75 0 -68 -2 -75 -20 -75 -18 0 -20 -7 -20 -80 0 -79 0 -80 -25 -80 -14 0 -25 -4 -25 -10 0 -5 5 -10 10 -10 7 0 10 -160 10 -460 l0 -460 30 0 30 0 0 -465 0 -465 -30 0 -30 0 0 75 0 75 -70 0 -70 0 0 -75 0 -75 -105 0 -105 0 0 750 0 750 -440 0 -440 0 0 530 0 530 -60 0 -60 0 0 215 0 215 65 0 65 0 0 40 0 40 -525 0 -525 0 0 640 0 640 530 0 530 0 0 925 0 925 285 0 285 0 0 -65 0 -65 35 0 35 0 0 500 0 500 70 0 70 0 0 70 0 70 -70 0 -70 0 0 360 0 360 140 0 140 0 0 30 0 30 -70 0 -70 0 0 285 0 285 520 0 520 0 0 -285z m170 -820 c0 -310 -3 -475 -10 -475 -7 0 -10 165 -10 475 0 310 3 475 10 475 7 0 10 -165 10 -475z m-1220 -315 l0 -60 -60 0 -60 0 0 60 0 60 60 0 60 0 0 -60z m3580 -80 l0 -130 -140 0 -140 0 0 130 0 130 140 0 140 0 0 -130z m-2360 -390 c0 -193 -4 -300 -10 -300 -6 0 -10 60 -10 160 l0 160 -510 0 -510 0 -3 -162 -3 -163 -2 168 -2 167 515 0 515 0 0 135 c0 83 4 135 10 135 6 0 10 -107 10 -300z m-40 110 l0 -60 -55 0 -55 0 0 60 0 60 55 0 55 0 0 -60z m5110 -3780 l0 -120 -90 0 -90 0 0 120 0 120 90 0 90 0 0 -120z m-5790 -360 l0 -60 -65 0 -65 0 0 60 0 60 65 0 65 0 0 -60z m10 -265 c0 -158 -2 -185 -15 -185 -12 0 -15 16 -15 85 l0 85 -200 0 -200 0 0 -250 0 -250 -245 0 -245 0 0 350 0 350 460 0 460 0 0 -185z m4430 35 c0 -6 -62 -10 -165 -10 -103 0 -165 4 -165 10 0 6 62 10 165 10 103 0 165 -4 165 -10z m-4290 -325 l0 -155 -65 0 -65 0 0 155 0 155 65 0 65 0 0 -155z m-140 -115 l0 -50 111 0 111 0 106 -75 107 -75 253 0 252 0 0 105 0 105 25 0 25 0 0 -170 0 -170 75 0 75 0 0 -35 0 -35 -110 0 -110 0 0 -65 0 -65 -465 0 -465 0 0 -250 0 -250 -25 0 -25 0 0 460 c0 402 2 460 15 460 12 0 15 16 15 80 0 64 3 80 15 80 11 0 15 -12 15 -50z m220 5 c0 -45 0 -45 -35 -45 -35 0 -35 0 -35 45 0 45 0 45 35 45 35 0 35 0 35 -45z m1420 -1765 l0 -70 -135 0 -135 0 0 70 0 70 135 0 135 0 0 -70z m-1720 -135 l0 -65 -60 0 -60 0 0 65 0 65 60 0 60 0 0 -65z m220 0 l0 -65 -65 0 -65 0 0 65 0 65 65 0 65 0 0 -65z m720 0 l0 -65 -70 0 -70 0 0 65 0 65 70 0 70 0 0 -65z m780 -5 l0 -60 -135 0 -135 0 0 60 0 60 135 0 135 0 0 -60z"/>
<path d="M2540 8760 l0 -30 235 0 235 0 0 30 0 30 -235 0 -235 0 0 -30z m460 0 c0 -19 -7 -20 -225 -20 -218 0 -225 1 -225 20 0 19 7 20 225 20 218 0 225 -1 225 -20z"/>
<path d="M2833 8222 l-63 -3 0 -69 0 -70 38 0 c28 0 45 -7 62 -25 16 -17 27 -22 34 -15 5 5 41 10 78 10 l68 0 0 70 0 70 -57 0 c-39 0 -63 5 -77 18 -16 13 -35 16 -83 14z m155 -42 l52 0 0 -60 0 -60 -63 0 c-35 0 -68 -5 -73 -10 -7 -7 -18 -2 -34 15 -16 17 -34 25 -57 25 l-33 0 0 60 0 59 58 3 c43 2 62 -1 78 -14 14 -12 37 -18 72 -18z"/>
<path d="M4940 7550 l0 -40 -305 0 -305 0 0 -215 0 -215 110 0 110 0 0 -390 0 -390 -360 0 -360 0 0 140 0 140 -35 0 -35 0 0 -100 0 -100 -155 0 -155 0 0 -110 0 -110 -85 0 -85 0 0 110 c0 91 -3 110 -15 110 -12 0 -15 14 -15 65 l0 65 -255 0 -255 0 2 -107 2 -108 3 103 4 102 244 0 245 0 0 -170 0 -170 -90 0 -90 0 0 -35 0 -35 245 0 245 0 0 -256 0 -256 -117 -124 -118 -124 -72 0 c-58 0 -73 -3 -73 -15 0 -13 43 -15 330 -15 l330 0 0 175 0 175 220 0 220 0 0 -65 0 -65 70 0 70 0 0 -145 c0 -122 2 -145 15 -145 10 0 15 11 15 35 l0 35 70 0 70 0 0 70 0 70 -70 0 -70 0 0 105 0 105 410 0 c403 0 410 0 410 20 0 19 -7 20 -135 20 l-135 0 0 375 0 375 100 0 100 0 0 210 0 210 -100 0 -100 0 0 365 0 365 -25 0 c-22 0 -25 -4 -25 -40z m40 -335 l0 -365 100 0 100 0 0 -200 0 -200 -100 0 -100 0 0 -385 0 -385 135 0 c83 0 135 -4 135 -10 0 -7 -245 -10 -715 -10 l-715 0 0 -175 0 -175 -322 2 c-178 1 -291 4 -251 5 l72 4 121 126 120 127 0 263 0 263 -245 0 -245 0 0 25 0 25 195 0 195 0 0 110 0 110 155 0 155 0 0 100 0 100 25 0 25 0 0 -140 0 -140 370 0 370 0 0 400 0 400 -110 0 -110 0 0 205 0 205 305 0 305 0 0 40 c0 29 4 40 15 40 13 0 15 -47 15 -365z m-1710 -950 c0 -63 -4 -105 -10 -105 -6 0 -10 42 -10 105 0 63 4 105 10 105 6 0 10 -42 10 -105z m1157 -922 c-1 -59 -3 -13 -3 102 0 116 2 164 3 108 2 -56 2 -151 0 -210z m-27 242 l0 -55 -60 0 -60 0 0 55 0 55 60 0 60 0 0 -55z m170 -215 l0 -60 -60 0 -60 0 0 60 0 60 60 0 60 0 0 -60z"/>
<path d="M2755 7281 c-16 -10 -39 -28 -49 -40 -19 -21 -19 -21 0 -42 38 -43 72 -49 266 -47 l183 2 -195 5 c-194 6 -221 11 -250 46 -11 13 -10 19 6 37 37 41 73 48 256 48 95 0 179 -4 187 -9 9 -6 12 -25 10 -65 -2 -31 -1 -56 4 -56 4 0 7 29 7 64 0 58 -2 64 -22 70 -13 3 -102 6 -198 6 -153 0 -179 -2 -205 -19z"/>
<path d="M8599 6603 l-34 -38 35 33 c29 26 44 32 80 32 37 0 51 -6 85 -37 l40 -38 -40 43 c-35 38 -44 42 -85 42 -40 0 -50 -5 -81 -37z"/>
<path d="M2050 6405 l0 -175 -110 0 -110 0 2 -547 c3 -507 3 -518 5 -145 l3 402 105 0 105 0 0 -675 c0 -593 2 -675 15 -675 13 0 15 38 15 280 l0 280 335 0 335 0 0 75 0 75 50 0 c38 0 50 4 50 15 0 12 -16 15 -80 15 l-80 0 0 380 0 380 75 0 75 0 0 35 0 35 -155 0 -155 0 0 175 0 175 -205 0 -205 0 0 35 c0 33 -2 35 -35 35 l-35 0 0 -175z m60 130 l0 -35 205 0 205 0 0 -175 0 -175 155 0 155 0 0 -25 c0 -24 -2 -25 -75 -25 l-75 0 0 -390 0 -390 83 -2 c61 -1 68 -3 30 -5 l-53 -4 0 -75 0 -74 -335 0 -335 0 -3 -282 c-1 -156 -3 22 -5 395 l-2 677 -110 0 -110 0 0 135 0 135 110 0 110 0 0 175 0 175 25 0 c22 0 25 -4 25 -35z"/>
<path d="M8562 6520 c-2 -42 2 -50 41 -88 36 -35 49 -42 83 -42 34 0 46 6 79 43 l40 42 -40 -37 c-33 -31 -48 -38 -81 -38 -33 0 -46 6 -76 38 -29 29 -38 47 -41 82 l-4 45 -1 -45z"/>
<path d="M5480 6370 l0 -140 145 0 145 0 0 -270 0 -270 -145 0 c-138 0 -145 -1 -145 -20 0 -19 7 -20 175 -20 l175 0 0 -245 0 -245 -70 0 -70 0 0 -75 0 -75 70 0 70 0 0 -69 0 -69 73 -71 72 -71 278 0 277 0 0 -185 0 -185 -490 0 -490 0 -3 188 -2 187 -3 -192 -2 -193 500 0 500 0 2 193 c1 105 4 159 5 120 l4 -73 69 0 70 0 0 70 0 70 180 0 180 0 0 -575 0 -575 285 0 285 0 0 575 0 575 -140 0 -140 0 0 390 0 390 35 0 35 0 0 500 0 500 -965 0 -965 0 0 -140z m1920 -360 l0 -490 -35 0 -35 0 0 -400 0 -400 140 0 140 0 0 -565 0 -565 -275 0 -275 0 0 575 0 575 -542 0 -542 0 -68 67 -68 67 0 393 0 393 -175 0 c-110 0 -175 4 -175 10 0 6 55 10 145 10 l145 0 0 280 0 280 -145 0 -145 0 0 130 0 130 955 0 955 0 0 -490z m-1580 -925 l0 -65 -60 0 -60 0 0 65 0 65 60 0 60 0 0 -65z m860 -425 l0 -60 -60 0 -60 0 0 60 0 60 60 0 60 0 0 -60z"/>
<path d="M7953 5923 c9 -2 25 -2 35 0 9 3 1 5 -18 5 -19 0 -27 -2 -17 -5z"/>
<path d="M7862 5820 c0 -19 2 -27 5 -17 2 9 2 25 0 35 -3 9 -5 1 -5 -18z"/>
<path d="M8072 5820 c0 -19 2 -27 5 -17 2 9 2 25 0 35 -3 9 -5 1 -5 -18z"/>
<path d="M7953 5713 c9 -2 25 -2 35 0 9 3 1 5 -18 5 -19 0 -27 -2 -17 -5z"/>
<path d="M5270 5130 c-11 -11 -20 -30 -19 -42 1 -18 3 -16 10 9 7 25 17 35 42 42 25 7 27 9 10 10 -13 1 -32 -8 -43 -19z"/>
<path d="M5345 5132 c4 -8 11 -26 15 -40 7 -22 8 -23 9 -6 1 11 -6 29 -15 40 -8 10 -12 13 -9 6z"/>
<path d="M5274 5046 c11 -9 29 -16 40 -15 17 1 16 2 -6 9 -14 4 -32 11 -40 15 -7 3 -4 -1 6 -9z"/>
<path d="M4410 4725 l0 -215 -290 0 -290 0 0 145 0 145 -210 0 -210 0 0 -180 0 -180 -255 0 -255 0 0 138 0 138 -73 72 -72 72 -66 0 -65 0 -67 -68 -67 -68 0 -287 0 -287 -205 0 -205 0 0 70 c0 56 -3 70 -15 70 -13 0 -15 -30 -15 -210 l0 -210 -105 0 -105 0 0 -40 0 -40 640 0 640 0 0 -280 0 -280 285 0 285 0 0 -65 0 -65 -217 -3 -218 -2 218 -3 217 -2 0 -35 c0 -33 2 -35 35 -35 l35 0 0 320 0 320 290 0 290 0 0 -75 0 -75 70 0 70 0 0 345 0 345 75 0 75 0 0 65 0 65 -75 0 c-43 0 -75 4 -75 10 0 6 127 10 360 10 l360 0 -2 193 -3 192 -2 -187 -3 -188 -355 0 -355 0 0 75 c0 68 -2 75 -20 75 -19 0 -20 7 -20 215 0 184 -2 215 -15 215 -13 0 -15 -31 -15 -215z m17 -112 c-1 -60 -3 -11 -3 107 0 118 2 167 3 108 2 -60 2 -156 0 -215z m-1605 170 l68 -67 0 -143 0 -143 265 0 265 0 0 180 0 180 200 0 200 0 0 -145 0 -145 325 0 325 0 0 -490 0 -490 -60 0 -60 0 0 75 0 75 -300 0 -300 0 0 -320 0 -320 -25 0 -25 0 0 105 0 105 -285 0 -285 0 0 280 0 280 -640 0 -640 0 0 30 0 30 105 0 105 0 2 213 c1 116 4 179 5 140 l4 -73 214 0 215 0 0 292 0 292 62 63 62 63 65 0 65 0 68 -67z m1798 -518 l0 -55 -65 0 -65 0 0 55 0 55 65 0 65 0 0 -55z"/>
<path d="M1260 4560 c-11 -11 -20 -29 -20 -40 0 -11 9 -29 20 -40 11 -11 29 -20 40 -20 11 0 29 9 40 20 11 11 20 29 20 40 0 11 -9 29 -20 40 -11 11 -29 20 -40 20 -11 0 -29 -9 -40 -20z m74 -6 c31 -30 9 -84 -34 -84 -24 0 -50 26 -50 50 0 24 26 50 50 50 10 0 26 -7 34 -16z"/>
<path d="M4830 3905 l0 -175 110 0 110 0 0 -285 0 -285 -285 0 -285 0 0 70 0 70 -70 0 -70 0 0 -425 0 -425 -75 0 -75 0 0 -45 0 -45 110 0 110 0 0 -335 0 -335 175 0 175 0 0 440 0 440 -105 0 -105 0 0 185 0 185 320 0 320 0 0 -50 0 -50 40 0 40 0 0 120 0 120 640 0 640 0 0 430 0 430 70 0 70 0 0 70 0 70 -930 0 -930 0 0 -175z m1710 -325 l0 -490 -640 0 -640 0 0 -120 0 -120 -30 0 c-29 0 -30 1 -30 50 l0 50 -330 0 -330 0 0 -195 0 -195 105 0 105 0 0 -430 0 -430 -165 0 -165 0 0 335 0 335 -110 0 -110 0 0 35 0 35 75 0 75 0 0 425 0 425 60 0 60 0 0 -70 0 -70 295 0 295 0 0 295 0 295 -110 0 -110 0 0 165 0 165 850 0 850 0 0 -490z m140 430 l0 -60 -60 0 -60 0 0 60 0 60 60 0 60 0 0 -60z"/>
<path d="M3050 1945 l0 -75 215 0 215 0 0 75 0 75 -215 0 -215 0 0 -75z m420 0 l0 -65 -205 0 -205 0 0 65 0 65 205 0 205 0 0 -65z"/>
<path d="M3120 1370 c0 -63 2 -70 20 -70 18 0 20 -7 20 -70 l0 -70 70 0 70 0 0 70 c0 63 -2 70 -20 70 -18 0 -20 7 -20 70 l0 70 -70 0 -70 0 0 -70z m130 0 l0 -60 -60 0 -60 0 0 60 0 60 60 0 60 0 0 -60z m40 -140 l0 -60 -60 0 -60 0 0 60 0 60 60 0 60 0 0 -60z"/>
</g>


</svg>